<?xml version="1.0" encoding="utf-8"?>
<!-- Generator: Adobe Illustrator 22.1.0, SVG Export Plug-In . SVG Version: 6.00 Build 0)  -->
<svg version="1.1" id="Layer_1" xmlns="http://www.w3.org/2000/svg" xmlns:xlink="http://www.w3.org/1999/xlink" x="0px" y="0px"
	 viewBox="0 0 153.7 15.6" style="enable-background:new 0 0 153.7 15.6;" xml:space="preserve">
<style type="text/css">
</style>
<title>Artboard 1-100</title>
<path class="logoSVG" d="M149.9,0.2h-0.9L147,0.3c-32.9,1.9-43.5,7-44,9.5c-0.4,1.9,3.3,4.2,8.9,5.8H125c-3.4-0.7-6.8-1.8-10-3.3
	c-1.5-0.7-2.4-1.7-2.5-2.9c-0.1-1.6,1.5-3.1,3.9-4c3.2-1.3,9.2-2.6,20.9-3.8l0.6-0.1h1.8c2.1,0,3.7,1.7,3.8,3.7v6.6
	c0,2.1,1.7,3.7,3.7,3.8h2.9c2.1,0,3.7-1.7,3.8-3.8V4C153.7,1.9,152,0.2,149.9,0.2C149.9,0.2,149.9,0.2,149.9,0.2z"/>
<path class="logoSVG" d="M55.5,0.3l-1.9-0.1h-0.9c-2.1,0-3.7,1.7-3.8,3.8v11H14.1c-2.1,0-3.7-1.7-3.8-3.8V3.8C10.4,1.7,8.7,0,6.6,0H3.8
	C1.7,0,0,1.7,0,3.8v8.1c0,2.1,1.7,3.8,3.8,3.8H53c0.4,0,0.6,0,0.8,0s0.4,0,0.7,0h1.1c2.1,0,3.7-1.6,3.8-3.7c0,0,0,0,0,0V5.3
	c0-2.1,1.7-3.7,3.7-3.7h1.7l0.6,0.1C77,2.8,83.1,4.1,86.3,5.4c2.4,0.9,4,2.4,3.9,4c-0.1,1.2-1,2.2-2.5,2.9c-3.2,1.5-6.6,2.6-10,3.3
	h13.1c5.5-1.6,9.3-3.9,8.9-5.8C99,7.3,88.4,2.2,55.5,0.3z"/>
</svg>
