<svg xmlns="http://www.w3.org/2000/svg" xmlns:xlink="http://www.w3.org/1999/xlink" width="69.203" height="69.174" viewBox="0 0 69.203 69.174"><defs><style>.a{fill:url(#a);}.b{fill:url(#b);}.c{fill:url(#c);}.d{fill:url(#d);}.e{fill:url(#e);}.f{fill:#4d4d4d;}</style><radialGradient id="a" cx="-519.337" cy="-47.113" r="29.449" gradientTransform="translate(-151.167 -13.469) scale(0.854 0.854)" gradientUnits="userSpaceOnUse"><stop offset="0" stop-color="#fff"/><stop offset="1" stop-color="#4d4d4d"/></radialGradient><linearGradient id="b" x1="77.471" y1="-81.821" x2="77.471" y2="-80.566" gradientUnits="objectBoundingBox"><stop offset="0" stop-color="#4d4d4d"/><stop offset="1" stop-color="#fff"/></linearGradient><radialGradient id="c" cx="39.147" cy="0.43" r="62.426" gradientTransform="translate(-31.566 -0.035) scale(0.929 0.929)" xlink:href="#a"/><radialGradient id="d" cx="171.354" cy="2.69" r="65.278" gradientTransform="translate(-16.557 -0.282) scale(0.948 0.948)" xlink:href="#a"/><radialGradient id="e" cx="-47.978" cy="-3.541" r="57.59" gradientTransform="translate(-45.888 -2.288) scale(0.916 0.917)" xlink:href="#a"/></defs><g transform="translate(-481.559 -0.706)"><path class="a" d="M546.14,49.91a8.044,8.044,0,0,1-1.14,4.2,22.6,22.6,0,0,1-3.01,3.92,24.7,24.7,0,0,1-4.13,3.95,23.23,23.23,0,0,1-4.81,3.19,19.327,19.327,0,0,1-5.03,1.89,9.443,9.443,0,0,1-4.06-.31,4.991,4.991,0,0,1-2.62-1.89,5.3,5.3,0,0,1-.84-3.26,10.362,10.362,0,0,1,1.09-4.03,18.813,18.813,0,0,1,2.67-4.04,25.428,25.428,0,0,1,3.86-3.66,26.053,26.053,0,0,1,4.72-2.89,19.231,19.231,0,0,1,4.8-1.56,10.777,10.777,0,0,1,4.05,0,5.646,5.646,0,0,1,2.97,1.43A5.129,5.129,0,0,1,546.14,49.91Zm-5.67,5.03a2.375,2.375,0,0,0-.57-1.5,2.61,2.61,0,0,0-1.36-.79,5.016,5.016,0,0,0-1.95-.05,8.916,8.916,0,0,0-2.34.73,12.583,12.583,0,0,0-2.31,1.4,11.929,11.929,0,0,0-1.88,1.8,8.487,8.487,0,0,0-1.27,1.98,5.027,5.027,0,0,0-.48,1.95,2.506,2.506,0,0,0,.47,1.55,2.47,2.47,0,0,0,1.3.87,4.735,4.735,0,0,0,1.95.12,8.535,8.535,0,0,0,2.41-.71,11.779,11.779,0,0,0,2.41-1.45,11.564,11.564,0,0,0,1.94-1.88,8.4,8.4,0,0,0,1.27-2.05A4.528,4.528,0,0,0,540.47,54.94Z"/><path class="b" d="M499.63,5.63c-4.71,2.94-7.52,4.48-10.97,8.71a21.183,21.183,0,0,0-3.17,4.64c-.48.98-1.05,2.59-1.05,2.59l-.24,1.81-.37,2.45-.19,2.19-.03.74c.01-.19.02-.38.04-.57s.04-.39.07-.59.07-.4.11-.61.09-.42.15-.63a26.355,26.355,0,0,1,3.05-7,28.478,28.478,0,0,1,5.3-6.52,55.916,55.916,0,0,1,6.65-5.96c1.7-1.25,5.85-3.86,8.3-4.2a12.1,12.1,0,0,0-3.48.7A36.265,36.265,0,0,0,499.63,5.63Z"/><path class="c" d="M533.86,7.54l-1.79-1.86L530.17,4l-.96-.75-2.17-.87a26.561,26.561,0,0,0-4.2-1.14,17.52,17.52,0,0,0-5.68-.12,24.893,24.893,0,0,0-5.1,1.69,49.678,49.678,0,0,0-6.41,3.35,66.31,66.31,0,0,0-16.1,14.03,49.167,49.167,0,0,0-5.48,8.03,24.624,24.624,0,0,0-2.47,7.83,12.946,12.946,0,0,0-.04,1.38,36.955,36.955,0,0,0,.88,5.36,21.81,21.81,0,0,0,.61,2.24c.34,1,1.07,2.5,1.07,2.5l.36.64.81,1.32a7.6,7.6,0,0,1-.75-1.51,9.232,9.232,0,0,1-.45-1.74,12.089,12.089,0,0,1-.14-1.95,15.214,15.214,0,0,1,.18-2.16,27.214,27.214,0,0,1,2.91-8.39,50.494,50.494,0,0,1,5.68-8.52,66.856,66.856,0,0,1,7.69-7.96,65.263,65.263,0,0,1,9.16-6.74,48.387,48.387,0,0,1,7.57-3.77,29.576,29.576,0,0,1,6.84-1.82,15.364,15.364,0,0,1,5.73.21,8,8,0,0,1,4.15,2.4"/><path class="d" d="M545.44,21.77l-2.96-7.81-.77-1.71a8.617,8.617,0,0,0-4.66-3.56c-1.89-.69-5.26-.65-7.77-.39a30.852,30.852,0,0,0-8.06,2.1,50.565,50.565,0,0,0-8.87,4.67,67.711,67.711,0,0,0-17.24,16.25,49.45,49.45,0,0,0-5.45,9.22,26.246,26.246,0,0,0-2.37,8.93,15.014,15.014,0,0,0,.11,2.96,10.6,10.6,0,0,0,.68,2.55,8.648,8.648,0,0,0,1.23,2.11,8.074,8.074,0,0,0,1.76,1.64l2.32,1.48,2.21,1.18,2.45,1.08,2.19.78a9.364,9.364,0,0,1-2.81-1.4,7.923,7.923,0,0,1-2.03-2.17,9.354,9.354,0,0,1-1.2-2.87,13.05,13.05,0,0,1-.33-3.52,24.2,24.2,0,0,1,2.01-8.41,43.788,43.788,0,0,1,4.96-8.66A59.9,59.9,0,0,1,516.89,21.1a44.42,44.42,0,0,1,9.22-4.56,32.054,32.054,0,0,1,9.32-1.77,11.668,11.668,0,0,1,6.43,1.72c1.76,1.16,2.09,3.12,2.67,5.49Z"/><path class="e" d="M547.74,37.9c.21-.57,1.44-1,1.6-1.58s.3-1.17.42-1.76.47-3.81.5-4.41a5.439,5.439,0,0,0-.28-1.01,8.074,8.074,0,0,0-3.23-3.27,15.568,15.568,0,0,0-7.31-1.9,24.362,24.362,0,0,0-8.04,1.37,42.949,42.949,0,0,0-9.02,4.31,56.123,56.123,0,0,0-8.56,6.57,52.957,52.957,0,0,0-6.82,7.7,38.893,38.893,0,0,0-4.59,8.13,20.683,20.683,0,0,0-1.66,7.82,11.039,11.039,0,0,0,.77,4.06,8.014,8.014,0,0,0,2.13,3,7.588,7.588,0,0,0,3.38,1.78,24.688,24.688,0,0,0,4.5.62l.37-.01,2.59-.16,2.54-.32,1.26-.22,2.32-.52,2.24-.64.61-.2,2.04-.74.43-.18a23.514,23.514,0,0,1-6.57,1.73,12.285,12.285,0,0,1-5.23-.51,7.04,7.04,0,0,1-3.47-2.54,8.086,8.086,0,0,1-1.39-4.35,16,16,0,0,1,1.15-6.27A29.48,29.48,0,0,1,514,47.85a41.258,41.258,0,0,1,5.45-6.2,43.043,43.043,0,0,1,6.89-5.25,32.42,32.42,0,0,1,7.27-3.36,18.844,18.844,0,0,1,6.44-.94,9.191,9.191,0,0,1,4.97,1.57,6.8,6.8,0,0,1,2.72,4.23"/><path class="f" d="M519.28,5.17a9.638,9.638,0,0,1-2.18,3.51,25.094,25.094,0,0,1-4.21,3.62,39.4,39.4,0,0,1-5.62,3.25,39.349,39.349,0,0,1-6.33,2.39,24.835,24.835,0,0,1-5.72.98,10.08,10.08,0,0,1-4.02-.51,3.222,3.222,0,0,1-1.99-1.79,3.79,3.79,0,0,1,.29-2.87,8.081,8.081,0,0,1,.56-1.03c.22-.34.47-.69.74-1.04s.58-.7.91-1.04.69-.69,1.07-1.04l1.02-.89,1-.81.95-.72.95-.67.93-.61.91-.55.9-.51a19.712,19.712,0,0,0-2.72,2.53,8.934,8.934,0,0,0-1.15,1.74,1.74,1.74,0,0,0-.09,1.38,1.666,1.666,0,0,0,1.04.83,5.3,5.3,0,0,0,2.01.19,13.236,13.236,0,0,0,2.8-.52,20.111,20.111,0,0,0,3.08-1.17,19.428,19.428,0,0,0,2.74-1.57,13.125,13.125,0,0,0,2.09-1.75,5.192,5.192,0,0,0,1.14-1.71,1.537,1.537,0,0,0-.05-1.34,1.858,1.858,0,0,0-1.15-.75,4.537,4.537,0,0,0-2,.04,23.809,23.809,0,0,0-2.69.51,9.859,9.859,0,0,0-1.64.62,27.331,27.331,0,0,1,5.07-2.09,25.026,25.026,0,0,1,3.43-.87,14.225,14.225,0,0,1,3.67-.15,7.571,7.571,0,0,1,2.7.67,3.041,3.041,0,0,1,1.5,1.48A3.1,3.1,0,0,1,519.28,5.17Z"/><path class="f" d="M545.76,52.37a17.978,17.978,0,0,1-.89,2.03,18.526,18.526,0,0,1-1.17,1.69s-.26.34-.43.55c-.47.6-1.26,1.51-1.26,1.51l-1.05,1.14a31.083,31.083,0,0,1-3.7,3.24,36.343,36.343,0,0,1-4.45,2.85,38.944,38.944,0,0,1-4.99,2.29,36.384,36.384,0,0,1-5.29,1.55c-.35.07-.7.14-1.04.2s-.68.12-1.02.16-.67.09-1,.13-.65.07-.97.09l-1.95.08h-.43l-2.09-.06-2.12-.19s-.36-.05-.59-.08c-.88-.12-1.38-.21-2.25-.39-.89-.18-2.26-.55-2.26-.55l-1.14-.38-.31-.15a14.428,14.428,0,0,0,2.89.77,24.958,24.958,0,0,0,3.34.27,30.506,30.506,0,0,0,3.75-.18,40.92,40.92,0,0,0,4.1-.66,48,48,0,0,0,9.52-3.12,49.167,49.167,0,0,0,8.51-4.83,38.92,38.92,0,0,0,6.62-5.85,18.193,18.193,0,0,0,1.67-2.15C545.78,52.31,545.76,52.37,545.76,52.37Z"/><path class="f" d="M527.1,2.4l2.28.86,2.25,1.03.79.41a7.186,7.186,0,0,1,1.64,1.16,5.447,5.447,0,0,1,1.12,1.5,5.551,5.551,0,0,1,.54,1.83,6.759,6.759,0,0,1-.12,2.17,15.6,15.6,0,0,1-3.45,6.52,40.459,40.459,0,0,1-7.36,6.78,64.311,64.311,0,0,1-10.18,6.03,64.9,64.9,0,0,1-11.58,4.25,41.992,41.992,0,0,1-9.49,1.43,19.2,19.2,0,0,1-6.87-.92,7.18,7.18,0,0,1-3.85-2.87,5.891,5.891,0,0,1-.61-4.42l.16-.73.65-2.42.81-2.34.84-1.98.77-1.61-.13.33c.03-.06-.03.07-.03.07a5.8,5.8,0,0,0-.5,4.17,4.63,4.63,0,0,0,2.73,2.76,13.726,13.726,0,0,0,5.72.92,34.808,34.808,0,0,0,8.27-1.29,54.359,54.359,0,0,0,9.21-3.43,54.075,54.075,0,0,0,8.14-4.76,34.7,34.7,0,0,0,5.99-5.32,13.136,13.136,0,0,0,2.95-5.12,5.227,5.227,0,0,0,.11-2.27,3.913,3.913,0,0,0-.84-1.78,5.04,5.04,0,0,0-1.66-1.28,8.666,8.666,0,0,0-1.54-.59l-.84-.23a6.652,6.652,0,0,1,.84.16s.82.2,1.34.35C525.95,2,527.1,2.4,527.1,2.4Z"/><path class="f" d="M542.23,12.56l1.7,2.13,1.54,2.29.69,1.17a7.5,7.5,0,0,1,.85,2.39,8.589,8.589,0,0,1,.13,1.36,10.674,10.674,0,0,1-.08,1.47,18.168,18.168,0,0,1-3.72,8.25,43.8,43.8,0,0,1-8.59,8.49,69.287,69.287,0,0,1-12.18,7.42,69.617,69.617,0,0,1-14.01,4.98,49.732,49.732,0,0,1-9.4,1.34,28.185,28.185,0,0,1-7.46-.63,14.022,14.022,0,0,1-5.22-2.29,8.106,8.106,0,0,1-2.82-3.64l-.54-1.55-.74-2.65-.52-2.67-.11-.75-.15-1.5c-.02-.14.01,0,.01,0a6.565,6.565,0,0,0,1.78,3.73,10.439,10.439,0,0,0,4.74,2.67,23.9,23.9,0,0,0,7.45.8,47.352,47.352,0,0,0,9.82-1.44,69.656,69.656,0,0,0,13.22-4.77,68.235,68.235,0,0,0,11.56-6.95,43.371,43.371,0,0,0,8.24-7.87,17.368,17.368,0,0,0,3.69-7.59,8.421,8.421,0,0,0,.1-1.92,6.652,6.652,0,0,0-.32-1.7,6.336,6.336,0,0,0-.7-1.49,5.833,5.833,0,0,0-.61-.8v-.01l1.41,1.48Z"/><path class="f" d="M550.59,32.45a18.833,18.833,0,0,1-.07,5.56,17.2,17.2,0,0,1-3.25,7.95,38.344,38.344,0,0,1-7.67,7.98,57.568,57.568,0,0,1-10.95,6.8,58.636,58.636,0,0,1-12.68,4.4,44.8,44.8,0,0,1-6.4.94,31.875,31.875,0,0,1-5.56-.07,21.466,21.466,0,0,1-4.59-.97,13.7,13.7,0,0,1-3.53-1.76l-2.09-1.63-1.75-1.58s-1.19-1.16-1.88-1.97c-.5-.58-1.21-1.53-1.21-1.53h0a10.564,10.564,0,0,0,3.05,2.38,17.95,17.95,0,0,0,5.2,1.7,30.792,30.792,0,0,0,6.82.37,48.086,48.086,0,0,0,8.23-1.16,65.485,65.485,0,0,0,13.81-4.84,64.927,64.927,0,0,0,11.95-7.36,41.958,41.958,0,0,0,8.38-8.53,18.267,18.267,0,0,0,3.55-8.38c.03-.29.05-.57.06-.85a5.5,5.5,0,0,0-.06-.83,10.818,10.818,0,0,1,.35,1.22S550.51,31.6,550.59,32.45Z"/></g></svg>