<svg xmlns="http://www.w3.org/2000/svg" width="61.6" height="73.98" viewBox="0 0 61.6 73.98"><defs><style>.a,.b{fill:#231f20;}.b{fill-rule:evenodd;}</style></defs><g transform="translate(-187.4 -2.08)"><path class="a" d="M237.98,45.48c6.07-2.96,8.82-9.36,8.32-15.94A29.293,29.293,0,0,0,239.67,13a12.355,12.355,0,0,0-4.4-3.46c-2.68-1.11-5.1.73-6.99,2.56-3.46,3.67-5.3,8.02-6.59,12.59-1.75,6.85-.9,14.67,4.98,19.27,3,2.5,7.76,3.39,11.31,1.52ZM187.4,29.47A31.548,31.548,0,0,1,203.06,2.08l3.58,6.61A25.284,25.284,0,0,0,194.56,30.1c0,14.12,11.93,25.56,26.65,25.56a28.594,28.594,0,0,0,21.51-10.35,18.713,18.713,0,0,1-3.92,2.71c-4.28,2.15-10.02,1.13-13.61-1.74-7.09-5.3-8.1-14.31-6-22.2,1.55-5.27,3.76-10.27,7.93-14.5,2.28-2.12,5.19-4.23,8.41-2.95a14.852,14.852,0,0,1,5.29,3.99c4.76,5.51,7.59,11,7.98,19.05a25.871,25.871,0,0,1-.48,7.08c-2.81,14.8-15.52,24.2-30.12,24.2-17-.02-30.8-14.11-30.8-31.48Z"/><path class="b" d="M192.4,72.45a3.61,3.61,0,0,0-.71-2.79,2.5,2.5,0,0,0-1.81-.66h-2.46v6.99h2.46a2.5,2.5,0,0,0,1.81-.66,3.814,3.814,0,0,0,.71-2.88Zm-1.06,0a3.413,3.413,0,0,1-.37,2.12,1.524,1.524,0,0,1-1.19.47h-1.29V69.95h1.29a1.538,1.538,0,0,1,1.19.47c.36.4.37,1.06.37,2.03Z"/><path class="a" d="M198.39,75.99v-.95h-3.41v-2.1h2.91v-.95h-2.91V69.95h3.41V69h-4.47v6.99Z"/><path class="a" d="M204.46,74a1.824,1.824,0,0,0-.57-1.43,2.286,2.286,0,0,0-1.31-.52l-.8-.12a1.684,1.684,0,0,1-.79-.32.826.826,0,0,1-.27-.65c0-.62.45-1.09,1.28-1.09a2.054,2.054,0,0,1,1.52.54l.68-.67a2.919,2.919,0,0,0-2.17-.8,2.068,2.068,0,0,0-2.34,2.05,1.771,1.771,0,0,0,.51,1.34,2.437,2.437,0,0,0,1.33.56l.83.12a1.292,1.292,0,0,1,.77.29.93.93,0,0,1,.27.73c0,.68-.53,1.07-1.44,1.07a2.312,2.312,0,0,1-1.79-.67l-.71.7a3.158,3.158,0,0,0,2.48.92c1.46,0,2.52-.77,2.52-2.05Z"/><path class="a" d="M207.04,75.99V69h-1.06v6.99Z"/><path class="a" d="M213.78,73.28V72.21h-2.55v.9h1.49v.39a1.6,1.6,0,0,1-.35,1.1,1.508,1.508,0,0,1-1.14.49,1.408,1.408,0,0,1-1.03-.42c-.34-.37-.42-.78-.42-2.18s.08-1.8.42-2.17a1.393,1.393,0,0,1,1.03-.43,1.416,1.416,0,0,1,1.47,1.22h1.07a2.457,2.457,0,0,0-2.54-2.17,2.509,2.509,0,0,0-1.84.75c-.69.69-.68,1.46-.68,2.81s-.01,2.12.68,2.81a2.681,2.681,0,0,0,3.77-.05,2.7,2.7,0,0,0,.62-1.98Z"/><path class="a" d="M220.7,75.99V69h-1.06v4.91L216.41,69h-.97v6.99h1.06V71.07l3.23,4.92Z"/><path class="b" d="M227.47,71.12A2.076,2.076,0,0,0,225.23,69h-2.65v6.99h1.06V73.24h1.59a2.076,2.076,0,0,0,2.24-2.12Zm-1.06,0a1.115,1.115,0,0,1-1.24,1.16h-1.53V69.95h1.53a1.122,1.122,0,0,1,1.24,1.17Z"/><path class="b" d="M233.96,75.99l-1.61-3.09a1.837,1.837,0,0,0,1.4-1.86A2,2,0,0,0,231.58,69h-2.71v6.99h1.06V73.04h1.33l1.47,2.95Zm-1.28-4.94a1.063,1.063,0,0,1-1.19,1.09h-1.57V69.95h1.57a1.07,1.07,0,0,1,1.19,1.1Z"/><path class="a" d="M239.91,75.99v-.95H236.5v-2.1h2.91v-.95H236.5V69.95h3.41V69h-4.47v6.99Z"/><path class="a" d="M242.65,75.99V69h-1.06v6.99Z"/><path class="a" d="M249,74a1.824,1.824,0,0,0-.57-1.43,2.286,2.286,0,0,0-1.31-.52l-.8-.12a1.684,1.684,0,0,1-.79-.32.826.826,0,0,1-.27-.65c0-.62.45-1.09,1.28-1.09a2.054,2.054,0,0,1,1.52.54l.68-.67a2.919,2.919,0,0,0-2.17-.8,2.068,2.068,0,0,0-2.34,2.05,1.771,1.771,0,0,0,.51,1.34,2.437,2.437,0,0,0,1.33.56l.83.12a1.292,1.292,0,0,1,.77.29.935.935,0,0,1,.28.73c0,.68-.53,1.07-1.44,1.07a2.312,2.312,0,0,1-1.79-.67l-.71.7a3.158,3.158,0,0,0,2.48.92c1.46,0,2.51-.77,2.51-2.05Z"/></g></svg>