<svg xmlns="http://www.w3.org/2000/svg" width="76.17" height="68.87" viewBox="0 0 76.17 68.87"><defs><style>.a{fill:#585858;}.a,.b,.c,.d,.e{fill-rule:evenodd;}.c{fill:#fff;}.d{fill:#4d4d4d;}.e{fill:#e3e3e3;}</style></defs><g transform="translate(-811.28 -0.09)"><path class="a" d="M811.28.09h76.17V68.96H811.28Z"/><path class="b" d="M829.42,34.63a23.93,23.93,0,1,1,23.93,23.93,23.925,23.925,0,0,1-23.93-23.93Z"/><path class="c" d="M816.75,41.24h12v-4.8h-5.57V34.72h4.92V30.15h-4.92V28.48h5.39v-4.8H816.75Z"/><path class="c" d="M830.37,41.24h6.38V23.68h-6.38Z"/><path class="c" d="M837.93,39.92a15.845,15.845,0,0,0,6.76,1.61c3.8,0,7.62-2.07,7.62-6.27,0-2.98-1.96-4.43-4.66-5.03l-1.44-.33c-.49-.12-1.28-.21-1.28-.86,0-.72.82-.93,1.37-.93a6.587,6.587,0,0,1,3.7,1.33l1.72-4.5a10.424,10.424,0,0,0-5.57-1.54c-3.82,0-7.62,2.33-7.62,6.5,0,2.75,2.1,4.22,4.59,4.66l1.28.23c.58.12,1.42.19,1.42.98s-1,1.05-1.63,1.05a6.653,6.653,0,0,1-3.98-1.61l-.33-.26-1.95,4.97Z"/><path class="c" d="M859.2,39.05h4.82l.58,2.19h6.76l-6.27-17.57h-7.06l-6.1,17.57h6.76l.51-2.19Zm1.15-4.17,1.16-5.36h.23c.12.75.23,1.51.42,2.26l.75,3.1Z"/><path class="d" d="M816.78,42.59h54.78v2.35H816.78Z"/><path class="c" d="M819.64,49.17l.5,1.19h.52l-1.89-4.41-1.94,4.41h.51l.51-1.19Zm-.18-.44h-1.42l.72-1.69.7,1.69Z"/><path class="c" d="M826.41,46.15h-.51l1.62,4.43,1.36-3.39,1.36,3.39,1.62-4.43h-.51l-1.11,3.16-1.36-3.38-1.36,3.38Z"/><path class="c" d="M840.61,49.17l.5,1.19h.52l-1.89-4.41-1.94,4.41h.51l.51-1.19Zm-.18-.44H839l.72-1.69.71,1.69Z"/><path class="c" d="M849.16,46.59h.14c.56,0,1.07.07,1.07.76,0,.65-.54.75-1.07.75h-.14V46.59Zm0,1.92h.12l1.27,1.85h.58l-1.34-1.89a1.1,1.1,0,0,0,1.06-1.16c0-.95-.74-1.16-1.54-1.16h-.61v4.21h.47V48.51Z"/><path class="c" d="M858.43,50.36h.78a2.21,2.21,0,0,0,1.66-.53,2.155,2.155,0,0,0-.01-3.17,2.319,2.319,0,0,0-1.64-.51h-.79v4.21Zm.47-.43V46.59h.34a1.825,1.825,0,0,1,1.31.41,1.717,1.717,0,0,1,.03,2.49,1.8,1.8,0,0,1-1.33.44h-.35Z"/><path class="c" d="M870.82,46.73a1.208,1.208,0,0,0-1.09-.65,1.1,1.1,0,0,0-1.18,1.07c0,.6.42.85.92,1.08l.26.11c.39.18.78.35.78.84a.848.848,0,0,1-.87.82.863.863,0,0,1-.84-.78l-.46.13a1.326,1.326,0,0,0,2.63-.21c0-.67-.46-.94-1.01-1.18l-.28-.12c-.28-.13-.66-.3-.66-.66a.661.661,0,0,1,.7-.65.781.781,0,0,1,.73.46l.37-.26Z"/><path class="c" d="M826.61,21.71l2.03.9.36-.81-.38-.16-.18.41-.46-.21.16-.35-.37-.17-.16.36-.44-.2.18-.4-.38-.17Z"/><path class="c" d="M827.29,20.34l1.41.85a.562.562,0,0,0,.85-.25c.33-.54,0-.77-.2-.89l-1.38-.83-.23.38,1.31.79c.14.09.28.17.17.35-.12.2-.33.06-.47-.03l-1.23-.74-.23.37Z"/><path class="c" d="M830.29,19.67l-.84-.59h0l1.06.27.26-.38-1.05-.26a.613.613,0,0,0-.29-.59c-.5-.35-.81.05-.97.27l-.25.36,1.81,1.27.27-.35Zm-1.52-1.06.03-.05a.247.247,0,0,1,.4-.08.272.272,0,0,1,.1.41l-.05.06-.48-.34Z"/><path class="c" d="M829.51,16.89c-.22.32-.19.82.49,1.29s1.16.34,1.38.02.19-.82-.49-1.29-1.16-.34-1.38-.02Zm.75.91c-.16-.11-.59-.44-.43-.68s.62.05.78.17c.14.1.59.44.43.68s-.63-.07-.78-.17Z"/><path class="c" d="M832.33,16.98l-.69-.6.07-.07a.617.617,0,0,0-.05-.94.635.635,0,0,0-.99.14l-.3.34,1.67,1.45.29-.32Zm-1.39-1.22.05-.06c.12-.14.26-.1.38,0a.266.266,0,0,1,.01.44l-.44-.38Z"/><path class="c" d="M831.32,14.77l1.67,1.45.58-.67-.31-.27-.29.34-.38-.33.26-.29-.31-.27-.26.29-.36-.31.29-.34-.31-.27Z"/><path class="c" d="M832.53,13.5l1.2,1.93.31-.31-.21-.32.31-.31.32.21.33-.33-1.94-1.19-.32.32Zm1.32.79-.22.22-.35-.48-.2-.27h0l.27.2.5.33Z"/><path class="c" d="M833.61,12.46,835,14.18l.34-.28-.64-.79-.06-.07-.16-.16v-.01l1.26.7.32-.26-1.39-1.72-.34.28.63.77a1.364,1.364,0,0,0,.24.24v.01l-1.27-.69-.32.26Z"/><path class="c" d="M835.59,10.88l1.33,1.77.35-.27-1.33-1.76Z"/><path class="c" d="M836.47,10.27l1.04,1.96.39-.26-.81-1.37h0l.03.03.33.38.75.77.29-.19-.42-.98-.24-.49.01-.01.96,1.28.37-.24-1.4-1.73-.49.32.56,1.19h0l-.89-.98Z"/><path class="c" d="M838.79,8.82l.55,2.21.39-.2-.1-.37.4-.2.24.29.42-.21-1.48-1.73-.42.21Zm1.02,1.16-.27.14-.18-.57-.11-.32h.01l.2.28.35.47Z"/><path class="c" d="M840.92,8.84l.19.37.25-.13c.07.14.17.42-.02.52-.29.15-.53-.3-.64-.5-.09-.19-.32-.69-.04-.8.15-.08.26.06.33.15l.3-.34a.652.652,0,0,0-.82-.17c-.56.28-.41.93-.18,1.39.22.44.69.92,1.22.65s.35-.88.14-1.3l-.08-.15-.65.31Z"/><path class="c" d="M841.64,7.44l.79,2.07.41-.16-.8-2.07Z"/><path class="c" d="M842.34,7.17l.79,2.07.41-.16-.36-.95-.04-.08-.1-.2V7.84l.98,1.05.39-.15-.79-2.07-.41.16.36.93a1.4,1.4,0,0,0,.15.3v.01l-.99-1.05-.39.15Z"/><path class="c" d="M845.09,7.23l.12.39.27-.08c.04.15.1.44-.11.51-.31.09-.47-.39-.54-.61-.06-.2-.19-.73.1-.8.16-.05.24.11.3.21l.36-.28a.663.663,0,0,0-.78-.31c-.6.18-.57.85-.42,1.33s.52,1.02,1.09.85.5-.81.36-1.26l-.05-.17-.7.22Z"/><path class="c" d="M847.18,5.71l-.12,2.27.43-.08.01-.38.44-.08.15.35.46-.08-.91-2.09-.46.09Zm.63,1.41-.3.05-.01-.6-.01-.34h.01l.11.32.2.57Z"/><path class="c" d="M848.34,5.51l.38,2.18.43-.08-.18-1-.02-.09-.06-.22V6.29l.76,1.22.41-.07-.38-2.18-.43.08.17.98a1.68,1.68,0,0,0,.09.32v.01l-.77-1.22-.4.08Z"/><path class="c" d="M850.87,7.41c.69-.06.89-.54.84-1.17-.11-1.23-1.01-1.04-1.09-1.03l-.33.03.19,2.21.39-.04Zm.01-.4-.12-1.42c.36-.03.49.41.51.69s-.04.72-.39.73Z"/><path class="c" d="M853.76,5.15a.765.765,0,0,0-.39-.11.587.587,0,0,0-.58.65.745.745,0,0,0,.41.66c.12.09.26.15.26.32a.234.234,0,0,1-.25.24.555.555,0,0,1-.33-.12v.42a.7.7,0,0,0,.38.11.628.628,0,0,0,.64-.69c0-.6-.67-.62-.67-.98a.2.2,0,0,1,.22-.22.493.493,0,0,1,.32.14V5.15Z"/><path class="c" d="M855.01,5.11c-.39-.02-.79.27-.84,1.1s.33,1.16.72,1.18.79-.27.84-1.1-.33-1.16-.72-1.18Zm-.37,1.12c.01-.2.06-.73.35-.72s.28.56.27.75-.06.74-.35.72-.28-.57-.27-.75Z"/><path class="c" d="M856.28,5.26l-.23,1.63c-.06.41.16.63.56.69.63.09.71-.3.74-.54l.22-1.6-.43-.06-.21,1.51c-.03.16-.05.32-.26.29-.24-.03-.18-.28-.16-.45l.2-1.42-.43-.05Z"/><path class="c" d="M858.1,5.49l-.46,2.17.43.09.21-.99.02-.09.03-.22h.01l.25,1.42.4.09.46-2.17-.43-.09-.21.97a1.975,1.975,0,0,0-.04.33h-.01l-.26-1.42-.4-.09Z"/><path class="c" d="M859.72,8.1c.67.18,1.02-.2,1.18-.81.32-1.19-.59-1.32-.67-1.34l-.32-.09L859.35,8l.37.1Zm.15-.37.37-1.38c.35.09.32.55.25.82s-.28.67-.62.56Z"/><path class="c" d="M862.68,6.69l-1.21,1.93.41.14.2-.33.42.14-.04.38.44.15.22-2.27-.44-.14Zm-.13,1.54-.29-.1.28-.53.15-.3h.01l-.06.33-.09.6Z"/><path class="c" d="M864.89,7.63a.788.788,0,0,0-.31-.26.589.589,0,0,0-.8.35.721.721,0,0,0,.09.77c.07.13.17.25.1.4a.237.237,0,0,1-.33.11.507.507,0,0,1-.25-.25l-.18.38a.662.662,0,0,0,.29.26.628.628,0,0,0,.87-.36c.25-.54-.34-.84-.19-1.17a.2.2,0,0,1,.29-.1.529.529,0,0,1,.23.26l.19-.39Z"/><path class="c" d="M866.08,8.17a.788.788,0,0,0-.31-.26.589.589,0,0,0-.8.35.721.721,0,0,0,.09.77c.07.13.17.25.1.4a.237.237,0,0,1-.33.11.507.507,0,0,1-.25-.25l-.18.38a.662.662,0,0,0,.29.26.628.628,0,0,0,.87-.36c.25-.54-.34-.84-.19-1.17a.2.2,0,0,1,.29-.1.529.529,0,0,1,.23.26l.19-.39Z"/><path class="c" d="M867.3,8.66c-.34-.19-.83-.1-1.23.62s-.21,1.19.13,1.38.83.11,1.23-.62.21-1.19-.13-1.38Zm-.83.85c.1-.17.38-.63.63-.49s.01.62-.09.8c-.09.15-.38.63-.63.49s.01-.64.09-.8Z"/><path class="c" d="M869.18,9.82a.612.612,0,0,0-.17-.15,1.046,1.046,0,0,0-1.4.46,1.047,1.047,0,0,0,.25,1.49.438.438,0,0,0,.19.07l.21-.35a.442.442,0,0,1-.16-.06c-.33-.2-.26-.63-.09-.91s.5-.51.83-.31a.642.642,0,0,1,.13.1l.21-.34Z"/><path class="c" d="M869.59,10.1l-1.3,1.79.35.25,1.3-1.79Z"/><path class="c" d="M870.51,10.76l-1.72,1.49.35.26.28-.26.36.26-.15.35.38.27.87-2.1-.37-.27Zm-.57,1.43-.25-.18.42-.42.23-.24h0l-.16.3-.24.54Z"/><path class="c" d="M871.6,11.55l-.27.31.25.23-1.18,1.36.33.29,1.19-1.36.26.22.27-.31Z"/><path class="c" d="M872.6,12.43l-1.45,1.67.33.29,1.45-1.67Z"/><path class="c" d="M873.87,13.52c-.28-.28-.77-.33-1.36.26s-.53,1.08-.26,1.36.77.33,1.36-.26.53-1.09.26-1.36Zm-1.03.59c.14-.14.54-.51.74-.3s-.16.6-.3.74c-.12.12-.54.51-.74.3s.17-.62.3-.74Z"/><path class="c" d="M874.67,14.38l-1.65,1.48.29.33.76-.68.07-.06.15-.16h.01l-.63,1.3.28.31,1.65-1.48-.29-.33-.74.67a1.792,1.792,0,0,0-.23.25h-.01l.63-1.3-.29-.33Z"/><path class="e" d="M878.93,17.54v-.01l-1.41.36-.79-1.25h0l-.12,1.5-1.44.35-.01.01,1.37.54-.11,1.46h.01l.95-1.14,1.39.55V19.9l-.78-1.26Z"/><path class="e" d="M881.84,23.05l-.01-.01-1.45.09-.53-1.38h-.01l-.39,1.44-1.49.07v.01l1.24.79-.4,1.42h.01l1.16-.94,1.25.8h.01l-.53-1.39Z"/><path class="e" d="M883.59,29.03v-.01l-1.44-.19-.26-1.46h-.01l-.66,1.34-1.47-.21-.01.01,1.06,1.01-.65,1.31.01.01,1.31-.7,1.08,1.02h.01l-.26-1.46Z"/><path class="e" d="M884.14,35.16v-.01l-1.39-.44V33.23h-.01l-.88,1.2-1.41-.47-.01.01.87,1.18-.87,1.18.01.01,1.41-.46.88,1.2h.01V35.59Z"/><path class="e" d="M883.36,41.43l.01-.01-1.27-.72.31-1.44-.01-.01-1.12,1L880,39.5l-.01.01.61,1.33-1.1.97.01.01,1.47-.16.62,1.36h.01l.31-1.45Z"/><path class="e" d="M881.37,47.41V47.4l-1.09-.97.61-1.35h-.01l-1.3.74-1.1-1h-.02l.32,1.44-1.27.72v.01l1.48.15.32,1.45.01.01.6-1.36Z"/><path class="e" d="M878.24,52.81l.01-.01-.88-1.16.85-1.21h-.01l-1.42.48-.88-1.2-.02.01.04,1.46-1.39.47v.01l1.42.43.04,1.49.01.01.85-1.22Z"/><path class="e" d="M874.65,57.19l.01-.01-.56-1.34,1.13-.96h-.01l-1.49.1-.56-1.38h-.01l-.33,1.43-1.47.09v.02l1.26.78-.33,1.44v.01l1.13-.96Z"/><path class="e" d="M869.62,60.86v-.01l-.29-1.42,1.29-.73v-.01l-1.49-.18-.28-1.46h-.01l-.6,1.34-1.46-.19v.02l1.09,1-.61,1.36.01.01,1.29-.73Z"/><path class="e" d="M863.95,63.45h.01L863.95,62l1.4-.47v-.01l-1.42-.46V59.57h-.02l-.84,1.2-1.4-.46v.01l.88,1.19-.86,1.22.01.01,1.41-.47Z"/><path class="e" d="M857.97,64.88h.01l.24-1.44,1.46-.21v-.01l-1.32-.7.26-1.47-.01-.01-1.04,1.04-1.3-.7-.01.02.67,1.32-1.06,1.05v.01l1.47-.21Z"/><path class="e" d="M851.65,65.02h.01l.53-1.36,1.47.1.01-.01-1.15-.96.56-1.38-.01-.01-1.23.79-1.12-.95-.02.01.38,1.44-1.25.81v.01l1.48.09Z"/><path class="e" d="M845.44,63.9h.01l.81-1.21,1.42.4v-.01l-.92-1.18.83-1.23v-.02l-1.37.53-.9-1.16h-.02l.07,1.49-1.39.53-.01.01,1.43.4Z"/><path class="e" d="M839.65,61.59h.01l1.02-1.04,1.32.67.01-.01-.68-1.33,1.05-1.05v-.02l-1.45.25-.66-1.31-.01.01-.23,1.46-1.46.26-.01.01,1.33.67Z"/><path class="e" d="M835.3,58.34l.01.01,1.23-.77,1.13.95v-.01l-.34-1.45,1.27-.77v-.02l-1.47-.09-.33-1.43h-.02l-.56,1.37-1.48-.09h-.01l1.13.96Z"/><path class="e" d="M830.99,53.83l.01.01,1.36-.52.92,1.15.01-.01-.06-1.49,1.39-.52v-.01l-1.42-.37-.05-1.47h-.02l-.81,1.24-1.44-.38v.01l.92,1.16Z"/></g></svg>