<svg xmlns="http://www.w3.org/2000/svg" width="68.44" height="68.44" viewBox="0 0 68.44 68.44"><defs><style>.a{fill:#323232;}.b,.d{fill:none;stroke:#000;stroke-miterlimit:22.926;}.b{stroke-width:0.049px;}.c{fill:#fff;}.d{stroke-width:0.386px;}</style></defs><g transform="translate(-654.18 -0.31)"><rect class="a" width="68.44" height="68.44" transform="translate(654.18 0.31)"/><circle cx="27.97" cy="27.97" r="27.97" transform="translate(660.43 6.55)"/><circle class="b" cx="27.97" cy="27.97" r="27.97" transform="translate(660.43 6.55)"/><path class="c" d="M701.96,39.02v4.33h-1.7V36.46h1.51l3.69,4.11V36.46h1.7v6.89h-1.35Zm-2.9,3.52a4.648,4.648,0,0,1-1.34.7,5.09,5.09,0,0,1-1.55.23,4.2,4.2,0,0,1-1.49-.25,3.533,3.533,0,0,1-1.18-.72,3.282,3.282,0,0,1-.79-1.16,3.753,3.753,0,0,1-.27-1.43,3.356,3.356,0,0,1,1.07-2.59,4.05,4.05,0,0,1,2.84-.98,5.382,5.382,0,0,1,1.27.15,6.523,6.523,0,0,1,1.29.47v1.51a7.04,7.04,0,0,0-1.3-.52,4.123,4.123,0,0,0-1.16-.17,2.273,2.273,0,0,0-1.64.57,2.361,2.361,0,0,0-.02,3.1,2.044,2.044,0,0,0,1.52.57,2.938,2.938,0,0,0,.51-.05,3.22,3.22,0,0,0,.5-.16v-.87h-.95v-1.3h2.7v2.9Zm-9.44.8V36.45h1.78v6.89Zm-6.18-.54V41.27a7.942,7.942,0,0,0,1.31.68,3.018,3.018,0,0,0,1.04.19,1.591,1.591,0,0,0,.77-.15.509.509,0,0,0,.26-.46.52.52,0,0,0-.16-.4,2.531,2.531,0,0,0-.76-.36,5.556,5.556,0,0,1-2.02-1.06,1.838,1.838,0,0,1-.55-1.38,1.718,1.718,0,0,1,.72-1.43,3,3,0,0,1,1.88-.55,5.352,5.352,0,0,1,1.18.14,6.851,6.851,0,0,1,1.17.42v1.41a9.561,9.561,0,0,0-1.24-.52,3.55,3.55,0,0,0-1-.17,1.638,1.638,0,0,0-.75.14.456.456,0,0,0-.26.41.563.563,0,0,0,.23.41,2.252,2.252,0,0,0,.7.36c.07.03.16.06.3.11a8.617,8.617,0,0,1,1.41.62,1.851,1.851,0,0,1,.68.71,2.179,2.179,0,0,1,.23,1.01,1.769,1.769,0,0,1-.72,1.5,3.277,3.277,0,0,1-2,.55,4.639,4.639,0,0,1-1.24-.17A3.809,3.809,0,0,1,683.44,42.8Zm-5.68.54V36.45h4.6v1.27h-2.88v1.4h2.75V40.4h-2.75v1.64h2.96v1.29h-4.68Zm-7.78,0V36.45h2.58a6.91,6.91,0,0,1,1.72.17,3.167,3.167,0,0,1,1.12.55,3.282,3.282,0,0,1,1.34,2.72,3.471,3.471,0,0,1-.41,1.67,3.412,3.412,0,0,1-1.2,1.25,3.022,3.022,0,0,1-.98.4,7.867,7.867,0,0,1-1.59.12h-2.58Zm1.72-5.49v4.1h1.29a1.913,1.913,0,0,0,1.43-.57,2.266,2.266,0,0,0,0-2.96,1.913,1.913,0,0,0-1.43-.57Zm29.03-5.26V25.7h2.58a6.91,6.91,0,0,1,1.72.17,3.167,3.167,0,0,1,1.12.55,3.282,3.282,0,0,1,1.34,2.72,3.471,3.471,0,0,1-.41,1.67,3.412,3.412,0,0,1-1.2,1.25,3.022,3.022,0,0,1-.98.4,7.867,7.867,0,0,1-1.59.12h-2.58Zm1.72-5.5v4.1h1.29a1.913,1.913,0,0,0,1.43-.57,2.266,2.266,0,0,0,0-2.96,1.913,1.913,0,0,0-1.43-.57h-1.29Zm-10.21,2.06a3.7,3.7,0,0,1,.27-1.42,3.3,3.3,0,0,1,.81-1.16,3.379,3.379,0,0,1,1.18-.73,4.294,4.294,0,0,1,1.48-.24,4.353,4.353,0,0,1,1.49.24,3.576,3.576,0,0,1,1.19.73,3.5,3.5,0,0,1,.8,1.16,3.7,3.7,0,0,1,.27,1.42,3.615,3.615,0,0,1-.27,1.41,3.271,3.271,0,0,1-.8,1.15,3.6,3.6,0,0,1-1.19.74,4.143,4.143,0,0,1-1.48.25,4.049,4.049,0,0,1-1.47-.25,3.447,3.447,0,0,1-1.19-.74,3.363,3.363,0,0,1-.8-1.15A3.3,3.3,0,0,1,692.24,29.15Zm1.77,0a2.112,2.112,0,0,0,.55,1.51,1.864,1.864,0,0,0,1.41.59,1.885,1.885,0,0,0,1.42-.59,2.112,2.112,0,0,0,.55-1.51,2.137,2.137,0,0,0-.55-1.52,1.968,1.968,0,0,0-2.83,0A2.2,2.2,0,0,0,694.01,29.15Zm-9.93,0a3.7,3.7,0,0,1,.27-1.42,3.3,3.3,0,0,1,.81-1.16,3.379,3.379,0,0,1,1.18-.73,4.294,4.294,0,0,1,1.48-.24,4.394,4.394,0,0,1,1.49.24,3.576,3.576,0,0,1,1.19.73,3.5,3.5,0,0,1,.8,1.16,3.7,3.7,0,0,1,.27,1.42,3.615,3.615,0,0,1-.27,1.41,3.271,3.271,0,0,1-.8,1.15,3.6,3.6,0,0,1-1.19.74,4.143,4.143,0,0,1-1.48.25,4.049,4.049,0,0,1-1.47-.25,3.447,3.447,0,0,1-1.19-.74,3.363,3.363,0,0,1-.8-1.15A3.3,3.3,0,0,1,684.08,29.15Zm1.78,0a2.112,2.112,0,0,0,.55,1.51,1.864,1.864,0,0,0,1.41.59,1.885,1.885,0,0,0,1.42-.59,2.112,2.112,0,0,0,.55-1.51,2.137,2.137,0,0,0-.55-1.52,1.968,1.968,0,0,0-2.83,0A2.153,2.153,0,0,0,685.86,29.15Zm-2.64,2.63a4.648,4.648,0,0,1-1.34.7,5.09,5.09,0,0,1-1.55.23,4.2,4.2,0,0,1-1.49-.25,3.533,3.533,0,0,1-1.18-.72,3.282,3.282,0,0,1-.79-1.16,3.753,3.753,0,0,1-.27-1.43,3.356,3.356,0,0,1,1.07-2.59,4.051,4.051,0,0,1,2.84-.98,5.382,5.382,0,0,1,1.27.15,6.523,6.523,0,0,1,1.29.47v1.51a7.04,7.04,0,0,0-1.3-.52,4.123,4.123,0,0,0-1.16-.17,2.273,2.273,0,0,0-1.64.57,2.361,2.361,0,0,0-.02,3.1,2.044,2.044,0,0,0,1.52.57,2.938,2.938,0,0,0,.51-.05,3.22,3.22,0,0,0,.5-.16v-.87h-.95v-1.3h2.7v2.9Z"/><path class="d" d="M701.96,39.02v4.33h-1.7V36.46h1.51l3.69,4.11V36.46h1.7v6.89h-1.35Zm-2.9,3.52a4.648,4.648,0,0,1-1.34.7,5.09,5.09,0,0,1-1.55.23,4.2,4.2,0,0,1-1.49-.25,3.533,3.533,0,0,1-1.18-.72,3.282,3.282,0,0,1-.79-1.16,3.753,3.753,0,0,1-.27-1.43,3.356,3.356,0,0,1,1.07-2.59,4.05,4.05,0,0,1,2.84-.98,5.382,5.382,0,0,1,1.27.15,6.523,6.523,0,0,1,1.29.47v1.51a7.04,7.04,0,0,0-1.3-.52,4.123,4.123,0,0,0-1.16-.17,2.273,2.273,0,0,0-1.64.57,2.361,2.361,0,0,0-.02,3.1,2.044,2.044,0,0,0,1.52.57,2.938,2.938,0,0,0,.51-.05,3.22,3.22,0,0,0,.5-.16v-.87h-.95v-1.3h2.7v2.9Zm-9.44.8V36.45h1.78v6.89Zm-6.18-.54V41.27a7.942,7.942,0,0,0,1.31.68,3.018,3.018,0,0,0,1.04.19,1.591,1.591,0,0,0,.77-.15.509.509,0,0,0,.26-.46.52.52,0,0,0-.16-.4,2.531,2.531,0,0,0-.76-.36,5.556,5.556,0,0,1-2.02-1.06,1.838,1.838,0,0,1-.55-1.38,1.718,1.718,0,0,1,.72-1.43,3,3,0,0,1,1.88-.55,5.352,5.352,0,0,1,1.18.14,6.851,6.851,0,0,1,1.17.42v1.41a9.561,9.561,0,0,0-1.24-.52,3.55,3.55,0,0,0-1-.17,1.638,1.638,0,0,0-.75.14.456.456,0,0,0-.26.41.563.563,0,0,0,.23.41,2.252,2.252,0,0,0,.7.36c.07.03.16.06.3.11a8.617,8.617,0,0,1,1.41.62,1.851,1.851,0,0,1,.68.71,2.179,2.179,0,0,1,.23,1.01,1.769,1.769,0,0,1-.72,1.5,3.277,3.277,0,0,1-2,.55,4.639,4.639,0,0,1-1.24-.17A3.809,3.809,0,0,1,683.44,42.8Zm-5.68.54V36.45h4.6v1.27h-2.88v1.4h2.75V40.4h-2.75v1.64h2.96v1.29h-4.68Zm-7.78,0V36.45h2.58a6.91,6.91,0,0,1,1.72.17,3.167,3.167,0,0,1,1.12.55,3.282,3.282,0,0,1,1.34,2.72,3.471,3.471,0,0,1-.41,1.67,3.412,3.412,0,0,1-1.2,1.25,3.022,3.022,0,0,1-.98.4,7.867,7.867,0,0,1-1.59.12h-2.58Zm1.72-5.49v4.1h1.29a1.913,1.913,0,0,0,1.43-.57,2.266,2.266,0,0,0,0-2.96,1.913,1.913,0,0,0-1.43-.57Zm29.03-5.26V25.7h2.58a6.91,6.91,0,0,1,1.72.17,3.167,3.167,0,0,1,1.12.55,3.282,3.282,0,0,1,1.34,2.72,3.471,3.471,0,0,1-.41,1.67,3.412,3.412,0,0,1-1.2,1.25,3.022,3.022,0,0,1-.98.4,7.867,7.867,0,0,1-1.59.12h-2.58Zm1.72-5.5v4.1h1.29a1.913,1.913,0,0,0,1.43-.57,2.266,2.266,0,0,0,0-2.96,1.913,1.913,0,0,0-1.43-.57h-1.29Zm-10.21,2.06a3.7,3.7,0,0,1,.27-1.42,3.3,3.3,0,0,1,.81-1.16,3.379,3.379,0,0,1,1.18-.73,4.294,4.294,0,0,1,1.48-.24,4.353,4.353,0,0,1,1.49.24,3.576,3.576,0,0,1,1.19.73,3.5,3.5,0,0,1,.8,1.16,3.7,3.7,0,0,1,.27,1.42,3.615,3.615,0,0,1-.27,1.41,3.271,3.271,0,0,1-.8,1.15,3.6,3.6,0,0,1-1.19.74,4.143,4.143,0,0,1-1.48.25,4.049,4.049,0,0,1-1.47-.25,3.447,3.447,0,0,1-1.19-.74,3.363,3.363,0,0,1-.8-1.15A3.3,3.3,0,0,1,692.24,29.15Zm1.77,0a2.112,2.112,0,0,0,.55,1.51,1.864,1.864,0,0,0,1.41.59,1.885,1.885,0,0,0,1.42-.59,2.112,2.112,0,0,0,.55-1.51,2.137,2.137,0,0,0-.55-1.52,1.968,1.968,0,0,0-2.83,0A2.2,2.2,0,0,0,694.01,29.15Zm-9.93,0a3.7,3.7,0,0,1,.27-1.42,3.3,3.3,0,0,1,.81-1.16,3.379,3.379,0,0,1,1.18-.73,4.294,4.294,0,0,1,1.48-.24,4.394,4.394,0,0,1,1.49.24,3.576,3.576,0,0,1,1.19.73,3.5,3.5,0,0,1,.8,1.16,3.7,3.7,0,0,1,.27,1.42,3.615,3.615,0,0,1-.27,1.41,3.271,3.271,0,0,1-.8,1.15,3.6,3.6,0,0,1-1.19.74,4.143,4.143,0,0,1-1.48.25,4.049,4.049,0,0,1-1.47-.25,3.447,3.447,0,0,1-1.19-.74,3.363,3.363,0,0,1-.8-1.15A3.3,3.3,0,0,1,684.08,29.15Zm1.78,0a2.112,2.112,0,0,0,.55,1.51,1.864,1.864,0,0,0,1.41.59,1.885,1.885,0,0,0,1.42-.59,2.112,2.112,0,0,0,.55-1.51,2.137,2.137,0,0,0-.55-1.52,1.968,1.968,0,0,0-2.83,0A2.153,2.153,0,0,0,685.86,29.15Zm-2.64,2.63a4.648,4.648,0,0,1-1.34.7,5.09,5.09,0,0,1-1.55.23,4.2,4.2,0,0,1-1.49-.25,3.533,3.533,0,0,1-1.18-.72,3.282,3.282,0,0,1-.79-1.16,3.753,3.753,0,0,1-.27-1.43,3.356,3.356,0,0,1,1.07-2.59,4.051,4.051,0,0,1,2.84-.98,5.382,5.382,0,0,1,1.27.15,6.523,6.523,0,0,1,1.29.47v1.51a7.04,7.04,0,0,0-1.3-.52,4.123,4.123,0,0,0-1.16-.17,2.273,2.273,0,0,0-1.64.57,2.361,2.361,0,0,0-.02,3.1,2.044,2.044,0,0,0,1.52.57,2.938,2.938,0,0,0,.51-.05,3.22,3.22,0,0,0,.5-.16v-.87h-.95v-1.3h2.7v2.9Z"/></g></svg>