<svg xmlns="http://www.w3.org/2000/svg" width="128.41" height="45.34" viewBox="0 0 128.41 45.34"><defs><style>.a{fill:#231f20;}.b,.c{fill:#fff;}.c{fill-rule:evenodd;}.d,.e{fill:none;stroke:#231f20;stroke-width:1.003px;}.e{stroke-linecap:square;stroke-linejoin:bevel;}</style></defs><g transform="translate(0 -12.18)"><path class="a" d="M0,49.39H128.41v8.13H0Z"/><path class="b" d="M10.75,51.78H9.27l1.63,5.48h1.45l1.07-3.17h.02l.96,3.17h1.45l1.75-5.48H16.12l-1.03,3.54h-.02L14,51.78H12.86l-1.14,3.54H11.7Z"/><path class="b" d="M34.83,51.78H33.41v5.48h1.42Z"/><path class="b" d="M51.17,57.26h1.42V53.9h.02l2.61,3.36h1.42V51.78H55.22v3.35H55.2l-2.61-3.35H51.17Z"/><path class="b" d="M73.01,57.26h1.42V53.9h.01l2.61,3.36h1.43V51.78H77.05v3.35h-.01l-2.61-3.35H73.01Z"/><path class="b" d="M97.96,52.99V51.78H94.84v5.48h3.12V56.05H96.27v-.94h1.61V53.9H96.27v-.91Z"/><path class="c" d="M117.09,55.02a1.472,1.472,0,0,0,1.2-1.55c0-1.17-.82-1.69-1.9-1.69h-2.13v5.48h1.43V55.15h.01l1.34,2.11h1.77l-1.72-2.24Zm-1.41-2.15h.14c.47,0,.99.09.99.68s-.52.68-.99.68h-.14V52.87Z"/><path class="d" d="M13.08,22.04V44.76M31.87,22.5h4.88a11.44,11.44,0,0,1,0,22.88H31.87m49.97.02V37.61H74.05V29.82H66.26V22.03"/><line class="e" x1="16.32" y1="24.45" transform="translate(99.88 20.95)"/><path class="b" d="M94.49,19.29H105.7v2.75H94.49Z"/><path class="b" d="M112.46,45.4h11.2v2.75h-11.2Z"/><path class="a" d="M8.78,16.46H8.27V12.37h.51Z"/><path class="a" d="M9.71,12.18l3.07,3.21V12.37h.51v4.26l-3.07-3.22v3.05H9.71Z"/><path class="a" d="M14.19,12.37h.85a2.059,2.059,0,1,1-.02,4.09h-.83V12.37Zm.51,3.62h.18c1.04,0,1.94-.39,1.94-1.58s-.9-1.58-1.94-1.58H14.7v3.16Z"/><path class="a" d="M18.49,12.37v2.41c0,.67.2,1.29.99,1.29s.99-.62.99-1.29V12.37h.51v2.59a1.5,1.5,0,1,1-3,0V12.37h.51Z"/><path class="a" d="M23.71,13.15a.708.708,0,0,0-.66-.38.643.643,0,0,0-.68.58c0,.32.31.49.57.59l.29.11c.58.23,1.01.55,1.01,1.23a1.289,1.289,0,0,1-2.57.13l.52-.11a.77.77,0,1,0,1.54-.02c0-.44-.35-.63-.7-.78l-.28-.12c-.47-.2-.89-.47-.89-1.04a1.119,1.119,0,0,1,1.2-1.06,1.15,1.15,0,0,1,1.05.62l-.4.25Z"/><path class="a" d="M26.12,16.46h-.51V12.84h-.97v-.47h2.45v.47h-.97Z"/><path class="a" d="M30.25,16.46h-.62l-1.2-1.73h-.21v1.73h-.51V12.37h.62a2.231,2.231,0,0,1,1.08.19,1.145,1.145,0,0,1,.54.98,1.105,1.105,0,0,1-.98,1.14l1.28,1.78Zm-2.03-2.15h.16c.52,0,1.08-.1,1.08-.75s-.61-.73-1.11-.73h-.14v1.48Z"/><path class="a" d="M31.37,16.46h-.51V12.37h.51Z"/><path class="a" d="M32.93,15.43l-.47,1.03h-.55l1.95-4.26,1.95,4.26h-.55l-.47-1.03H32.93Zm.93-2.12-.73,1.65h1.45l-.72-1.65Z"/><path class="a" d="M36.88,15.99h1.25v.47H36.37V12.37h.51Z"/><path class="a" d="M40.84,12.37h.85a2.059,2.059,0,1,1-.02,4.09h-.83V12.37Zm.51,3.62h.18c1.04,0,1.94-.39,1.94-1.58s-.9-1.58-1.94-1.58h-.18v3.16Z"/><path class="a" d="M44.7,12.37h2.2v.47H45.21v1.14h1.64v.47H45.21v1.54H46.9v.47H44.7Z"/><path class="a" d="M49.56,13.15a.708.708,0,0,0-.66-.38.637.637,0,0,0-.68.58c0,.32.31.49.57.59l.29.11c.58.23,1.01.55,1.01,1.23a1.289,1.289,0,0,1-2.57.13l.52-.11a.77.77,0,1,0,1.54-.02c0-.44-.35-.63-.7-.78l-.28-.12c-.47-.2-.89-.47-.89-1.04a1.119,1.119,0,0,1,1.2-1.06,1.15,1.15,0,0,1,1.05.62l-.4.25Z"/><path class="a" d="M51.36,16.46h-.51V12.37h.51Z"/><path class="a" d="M56.07,14.4v.16a1.9,1.9,0,0,1-1.94,1.98,2.131,2.131,0,0,1,.06-4.26,2.15,2.15,0,0,1,1.66.79l-.36.34a1.606,1.606,0,0,0-2.91.99,1.664,1.664,0,0,0,1.59,1.67,1.378,1.378,0,0,0,1.34-1.21H54.45V14.4Z"/><path class="a" d="M56.74,12.18l3.07,3.21V12.37h.51v4.26l-3.07-3.22v3.05h-.51Z"/><path class="a" d="M63.46,12.37h2.2v.47H63.97v1.14h1.64v.47H63.97v1.54h1.69v.47h-2.2Z"/><path class="a" d="M66.27,12.37h.58l.84,1.49.89-1.49h.58l-1.18,1.95,1.24,2.14h-.57l-.96-1.68-1,1.68h-.57l1.28-2.14Z"/><path class="a" d="M72.81,13.15a1.675,1.675,0,1,0,0,2.51v.6a2.259,2.259,0,0,1-1.07.29,2.115,2.115,0,0,1-2.13-2.11,2.145,2.145,0,0,1,2.17-2.15,1.97,1.97,0,0,1,1.03.28v.58Z"/><path class="a" d="M73.63,12.37h2.2v.47H74.15v1.14h1.63v.47H74.15v1.54h1.68v.47h-2.2Z"/><path class="a" d="M77.19,15.99h1.24v.47H76.68V12.37h.51Z"/><path class="a" d="M79.49,15.99h1.24v.47H78.98V12.37h.51Z"/><path class="a" d="M81.28,12.37h2.2v.47H81.79v1.14h1.64v.47H81.79v1.54h1.69v.47h-2.2Z"/><path class="a" d="M84.28,12.18l3.06,3.21V12.37h.51v4.26l-3.07-3.22v3.05h-.5Z"/><path class="a" d="M91.77,13.15a1.675,1.675,0,1,0,0,2.51v.6a2.259,2.259,0,0,1-1.07.29,2.121,2.121,0,0,1-2.13-2.11,2.147,2.147,0,0,1,2.18-2.15,1.97,1.97,0,0,1,1.03.28v.58Z"/><path class="a" d="M92.6,12.37h2.19v.47H93.11v1.14h1.63v.47H93.11v1.54h1.68v.47H92.6Z"/><path class="a" d="M98.42,15.43l-.47,1.03H97.4l1.95-4.26,1.95,4.26h-.55l-.47-1.03H98.42Zm.94-2.12-.73,1.65h1.45l-.72-1.65Z"/><path class="a" d="M102.31,15.3l1.15-3.02,1.16,3.02,1.14-2.93h.56l-1.7,4.25-1.16-3-1.15,3-1.7-4.25h.56Z"/><path class="a" d="M106.72,15.43l-.47,1.03h-.55l1.95-4.26,1.95,4.26h-.55l-.47-1.03h-1.86Zm.93-2.12-.73,1.65h1.45l-.72-1.65Z"/><path class="a" d="M112.55,16.46h-.62l-1.2-1.73h-.21v1.73h-.51V12.37h.62a2.231,2.231,0,0,1,1.08.19,1.145,1.145,0,0,1,.54.98,1.105,1.105,0,0,1-.98,1.14l1.28,1.78Zm-2.03-2.15h.16c.52,0,1.08-.1,1.08-.75s-.61-.73-1.11-.73h-.14v1.48Z"/><path class="a" d="M113.13,12.37h.85a2.059,2.059,0,1,1-.02,4.09h-.83V12.37Zm.51,3.62h.18c1.04,0,1.94-.39,1.94-1.58s-.9-1.58-1.94-1.58h-.18v3.16Z"/><path class="a" d="M118.81,13.15a.708.708,0,0,0-.66-.38.637.637,0,0,0-.68.58c0,.32.31.49.57.59l.29.11c.58.23,1.01.55,1.01,1.23a1.289,1.289,0,0,1-2.57.13l.52-.11a.77.77,0,1,0,1.54-.02c0-.44-.35-.63-.7-.78l-.28-.12c-.47-.2-.89-.47-.89-1.04a1.119,1.119,0,0,1,1.2-1.06,1.15,1.15,0,0,1,1.05.62l-.4.25Z"/></g></svg>