<svg xmlns="http://www.w3.org/2000/svg" width="151.58" height="51.96" viewBox="0 0 151.58 51.96"><defs><style>.a{fill:#828487;}</style></defs><g transform="translate(-1205.99 -9.67)"><rect class="a" width="14.64" height="14.65" transform="translate(1234.77 9.67)"/><rect class="a" width="14.64" height="14.64" transform="translate(1234.77 38.54)"/><rect class="a" width="14.64" height="43.52" transform="translate(1205.99 9.67)"/><path class="a" d="M1319.39,53.18l-41.5-43.51h-14.11V53.18h14.11V30.54l21.55,22.64Z"/><path class="a" d="M1207.21,61.48h-1.22v-4.7h1.22Z"/><path class="a" d="M1208.04,56.78h1.23l2.23,2.87h.01V56.78h1.22v4.7h-1.22l-2.24-2.88h-.01v2.88h-1.23v-4.7Z"/><path class="a" d="M1215.44,61.48h-1.22V57.81h-1.01V56.78h3.24v1.03h-1.01Z"/><path class="a" d="M1218.14,57.81v.79h1.38v1.03h-1.38v.81h1.45v1.03h-2.67v-4.7h2.67V57.8h-1.45Z"/><path class="a" d="M1224.29,61.48h-1.52l-1.15-1.81h-.01v1.81h-1.22v-4.7h1.83c.93,0,1.63.44,1.63,1.44a1.264,1.264,0,0,1-1.03,1.33Zm-2.69-2.59h.12c.4,0,.85-.08.85-.59s-.45-.59-.85-.59h-.12Z"/><path class="a" d="M1224.65,56.78h1.22l2.24,2.87h.01V56.78h1.22v4.7h-1.22l-2.24-2.88h-.01v2.88h-1.22Z"/><path class="a" d="M1231.37,60.66l-.33.82h-1.3l1.81-4.7h1.33l1.77,4.7h-1.3l-.31-.82Zm.86-2.43h-.01l-.51,1.49h1.01Z"/><path class="a" d="M1236.57,61.48h-1.22V57.81h-1.01V56.78h3.24v1.03h-1.01Z"/><path class="a" d="M1239.28,61.48h-1.22v-4.7h1.22Z"/><path class="a" d="M1245.07,59.04a2.607,2.607,0,1,1-2.6-2.42A2.5,2.5,0,0,1,1245.07,59.04Zm-3.92.01a1.332,1.332,0,1,0,2.66,0,1.333,1.333,0,0,0-2.66,0Z"/><path class="a" d="M1245.67,56.78h1.22l2.24,2.87h.01V56.78h1.22v4.7h-1.22l-2.24-2.88h-.01v2.88h-1.22Z"/><path class="a" d="M1252.39,60.66l-.32.82h-1.3l1.81-4.7h1.33l1.77,4.7h-1.3l-.31-.82Zm.86-2.43h-.01l-.51,1.49h1.02Z"/><path class="a" d="M1257.32,60.44h1.47v1.03h-2.69v-4.7h1.22Z"/><path class="a" d="M1264.37,58.59V56.78h1.22v4.7h-1.22V59.55h-1.76v1.93h-1.22v-4.7h1.22v1.81Z"/><path class="a" d="M1271.38,59.04a2.607,2.607,0,1,1-2.6-2.42A2.5,2.5,0,0,1,1271.38,59.04Zm-3.92.01a1.332,1.332,0,1,0,2.66,0,1.333,1.333,0,0,0-2.66,0Z"/><path class="a" d="M1276.06,56.78v2.64a2.155,2.155,0,0,1-.49,1.66,2.6,2.6,0,0,1-3.12,0,2.117,2.117,0,0,1-.49-1.66V56.78h1.22v2.47c0,.61.04,1.28.83,1.28s.83-.67.83-1.28V56.78Z"/><path class="a" d="M1279.45,57.99a1.255,1.255,0,0,0-.81-.31c-.23,0-.52.13-.52.39s.33.38.54.45l.31.09c.65.2,1.16.53,1.16,1.28a1.589,1.589,0,0,1-.49,1.27,2.069,2.069,0,0,1-1.33.44,3,3,0,0,1-1.66-.53l.53-.99a1.664,1.664,0,0,0,1.08.49c.29,0,.59-.14.59-.47s-.48-.46-.74-.54c-.77-.22-1.27-.42-1.27-1.33a1.52,1.52,0,0,1,1.62-1.57,3.163,3.163,0,0,1,1.47.39Z"/><path class="a" d="M1281.96,57.81v.79h1.38v1.03h-1.38v.81h1.45v1.03h-2.67v-4.7h2.67V57.8h-1.45Z"/><path class="a" d="M1285.8,59.81h.01l.99-3.03h.97l.92,3.03h.01l.89-3.03h1.27l-1.5,4.7h-1.25l-.82-2.72h-.01l-.92,2.72h-1.24l-1.4-4.7h1.27Z"/><path class="a" d="M1291.89,60.66l-.32.82h-1.3l1.81-4.7h1.33l1.77,4.7h-1.3l-.3-.82Zm.86-2.43h-.01l-.51,1.49h1.02Z"/><path class="a" d="M1299.5,61.48h-1.52l-1.15-1.81h-.02v1.81h-1.22v-4.7h1.83c.93,0,1.63.44,1.63,1.44a1.264,1.264,0,0,1-1.03,1.33Zm-2.68-2.59h.12c.4,0,.85-.08.85-.59s-.45-.59-.85-.59h-.12Z"/><path class="a" d="M1301.09,57.81v.79h1.38v1.03h-1.38v.81h1.45v1.03h-2.67v-4.7h2.67V57.8h-1.45Z"/><path class="a" d="M1305.91,57.99a1.255,1.255,0,0,0-.81-.31c-.22,0-.52.13-.52.39s.33.38.54.45l.31.09c.66.2,1.16.53,1.16,1.28a1.614,1.614,0,0,1-.48,1.27,2.069,2.069,0,0,1-1.33.44,2.944,2.944,0,0,1-1.65-.53l.52-.99a1.686,1.686,0,0,0,1.08.49c.29,0,.6-.14.6-.47s-.48-.46-.74-.54c-.77-.22-1.27-.42-1.27-1.33a1.52,1.52,0,0,1,1.62-1.57,3.163,3.163,0,0,1,1.47.39Z"/><path class="a" d="M1310.57,60.66l-.32.82h-1.3l1.81-4.7h1.33l1.77,4.7h-1.3l-.3-.82Zm.85-2.43h0l-.51,1.49h1.01Z"/><path class="a" d="M1316.85,57.99a1.255,1.255,0,0,0-.81-.31c-.22,0-.52.13-.52.39s.33.38.54.45l.31.09c.65.2,1.16.53,1.16,1.28a1.589,1.589,0,0,1-.49,1.27,2.051,2.051,0,0,1-1.33.44,2.944,2.944,0,0,1-1.65-.53l.53-.99a1.664,1.664,0,0,0,1.08.49c.29,0,.6-.14.6-.47s-.48-.46-.74-.54c-.77-.22-1.27-.42-1.27-1.33a1.52,1.52,0,0,1,1.62-1.57,3.163,3.163,0,0,1,1.47.39Z"/><path class="a" d="M1320.73,57.99a1.3,1.3,0,0,0-.81-.31c-.22,0-.52.13-.52.39s.33.38.54.45l.31.09c.66.2,1.16.53,1.16,1.28a1.622,1.622,0,0,1-.49,1.27,2.078,2.078,0,0,1-1.34.44,2.944,2.944,0,0,1-1.65-.53l.52-.99a1.689,1.689,0,0,0,1.09.49c.29,0,.59-.14.59-.47s-.48-.46-.74-.54c-.77-.22-1.27-.42-1.27-1.33a1.52,1.52,0,0,1,1.62-1.57,3.163,3.163,0,0,1,1.47.39Z"/><path class="a" d="M1326.98,59.04a2.607,2.607,0,1,1-2.6-2.42A2.5,2.5,0,0,1,1326.98,59.04Zm-3.93.01a1.332,1.332,0,1,0,2.66,0,1.333,1.333,0,0,0-2.66,0Z"/><path class="a" d="M1330.94,58.36a1.326,1.326,0,0,0-1.07-.52,1.29,1.29,0,0,0,.02,2.58,1.41,1.41,0,0,0,1.06-.5v1.46a3.354,3.354,0,0,1-1.08.22,2.614,2.614,0,0,1-1.76-.69,2.3,2.3,0,0,1-.76-1.78,2.453,2.453,0,0,1,.69-1.72,2.539,2.539,0,0,1,1.79-.76,3.113,3.113,0,0,1,1.12.23v1.48Z"/><path class="a" d="M1332.95,61.48h-1.22v-4.7h1.22Z"/><path class="a" d="M1334.97,60.66l-.32.82h-1.3l1.81-4.7h1.33l1.77,4.7h-1.3l-.31-.82Zm.85-2.43h-.01l-.51,1.49h1.02Z"/><path class="a" d="M1340.17,61.48h-1.22V57.81h-1.01V56.78h3.24v1.03h-1.01Z"/><path class="a" d="M1342.88,61.48h-1.22v-4.7h1.22Z"/><path class="a" d="M1348.67,59.04a2.607,2.607,0,1,1-2.6-2.42A2.5,2.5,0,0,1,1348.67,59.04Zm-3.93.01a1.332,1.332,0,1,0,2.66,0,1.333,1.333,0,0,0-2.66,0Z"/><path class="a" d="M1349.27,56.78h1.22l2.23,2.87h.01V56.78h1.22v4.7h-1.22l-2.24-2.88h-.01v2.88h-1.22v-4.7Z"/><path class="a" d="M1356.51,56.65a1.085,1.085,0,1,1-1.08,1.08,1.088,1.088,0,0,1,1.08-1.08Zm0,.17a.916.916,0,0,0,.01,1.83.878.878,0,0,0,.86-.91.9.9,0,0,0-.87-.92Zm-.21,1.54h-.19v-1.2a2.862,2.862,0,0,1,.34-.03.64.64,0,0,1,.37.09.285.285,0,0,1,.11.25.3.3,0,0,1-.24.29v.01c.11.02.18.12.2.29a.98.98,0,0,0,.08.3h-.2a.807.807,0,0,1-.08-.31.23.23,0,0,0-.26-.21h-.14v.52Zm0-.67h.14c.16,0,.29-.06.29-.21,0-.11-.08-.21-.29-.21a.531.531,0,0,0-.14.01Z"/></g></svg>