<svg xmlns="http://www.w3.org/2000/svg" width="170.85" height="69.08" viewBox="0 0 170.85 69.08"><defs><style>.a{fill:none;stroke:#000;stroke-width:0.116px;}.b{fill:#3f3f3f;}.c{fill:#fff;}</style></defs><g transform="translate(-974.2 -0.14)"><path d="M1033.05,13.82a2.479,2.479,0,0,0,1.66-.6,3.991,3.991,0,0,0,.37-2.14V2.45a2.167,2.167,0,0,0-.36-1.5,2.716,2.716,0,0,0-1.62-.41V.14h4.11l4.79,10.6,4.67-10.6h4.14V.53a2.53,2.53,0,0,0-1.5.43,2.254,2.254,0,0,0-.34,1.48v9.45a2.174,2.174,0,0,0,.34,1.49,2.626,2.626,0,0,0,1.5.43v.39h-5.83v-.39a2.5,2.5,0,0,0,1.57-.46,2.957,2.957,0,0,0,.31-1.71V2.1l-5.34,12.11h-.29L1035.98,2.6v8.48a3.535,3.535,0,0,0,.5,2.27,2.548,2.548,0,0,0,1.46.47v.39h-4.9v-.39Z"/><path d="M1050.96,13.88a2.569,2.569,0,0,0,1.28-.36,1.86,1.86,0,0,0,.29-1.28V4.12a1.938,1.938,0,0,0-.29-1.27,2.1,2.1,0,0,0-1.28-.37V2.14h9.5l.06,2.61h-.45a2.638,2.638,0,0,0-.68-1.56,3.713,3.713,0,0,0-2.03-.35h-2.44c-.26,0-.42.04-.49.13a.937.937,0,0,0-.09.49V7.53h2.76a2.085,2.085,0,0,0,1.46-.35,3.048,3.048,0,0,0,.51-1.4h.42V10h-.42a2.936,2.936,0,0,0-.52-1.4,2.064,2.064,0,0,0-1.45-.34h-2.76v4.52c0,.36.11.58.34.64a11.727,11.727,0,0,0,2.02.1,6.716,6.716,0,0,0,2.69-.41,3.7,3.7,0,0,0,1.56-1.97h.5l-.81,3.08h-9.67v-.34Z"/><path d="M1061.48,13.88a2.606,2.606,0,0,0,1.28-.36c.2-.17.3-.6.3-1.28V4.12a1.915,1.915,0,0,0-.29-1.28,2.181,2.181,0,0,0-1.28-.36V2.14h4.82a9.311,9.311,0,0,1,4.12.82,5.325,5.325,0,0,1,3.04,5.26,6.211,6.211,0,0,1-.55,2.59,5.27,5.27,0,0,1-1.65,2.08,5.381,5.381,0,0,1-1.45.81,9.7,9.7,0,0,1-3.37.52h-4.97Zm3.6-.48a1.764,1.764,0,0,0,.89.14,6.346,6.346,0,0,0,3.45-.85q2.085-1.3,2.08-4.45a5.191,5.191,0,0,0-1.71-4.23,5.9,5.9,0,0,0-3.89-1.21,1.741,1.741,0,0,0-.82.13c-.14.09-.21.29-.21.59v9.29A.678.678,0,0,0,1065.08,13.4Z"/><path d="M1073.9,13.88a2.838,2.838,0,0,0,1.41-.33c.22-.17.32-.6.32-1.31V4.12a1.857,1.857,0,0,0-.32-1.3,2.489,2.489,0,0,0-1.41-.34V2.14h5.29v.34a2.521,2.521,0,0,0-1.41.34,1.79,1.79,0,0,0-.32,1.3v8.12c0,.7.11,1.14.32,1.31a2.905,2.905,0,0,0,1.41.33v.34h-5.29Z"/><path d="M1087.68,2.22a8.438,8.438,0,0,0,1.14.29.923.923,0,0,0,.48-.14.688.688,0,0,0,.31-.45h.38l.17,4.1h-.41a6.123,6.123,0,0,0-.93-1.97,3.555,3.555,0,0,0-2.96-1.41,3.734,3.734,0,0,0-3.07,1.52,6.546,6.546,0,0,0-1.19,4.17,5.8,5.8,0,0,0,1.25,3.9,4.012,4.012,0,0,0,3.17,1.46,5.028,5.028,0,0,0,2.56-.68,7.868,7.868,0,0,0,1.48-1.16l.33.34a6.211,6.211,0,0,1-1.48,1.35,6.263,6.263,0,0,1-7.84-.9,6.266,6.266,0,0,1-1.56-4.34,6.366,6.366,0,0,1,1.65-4.47,5.839,5.839,0,0,1,4.52-1.9A7.115,7.115,0,0,1,1087.68,2.22Z"/><path d="M1090.76,14.22v-.34a1.465,1.465,0,0,0,1.04-.53,14.9,14.9,0,0,0,1.18-2.46l3.73-8.96h.36l4.46,10.35a4.291,4.291,0,0,0,.71,1.27,1.731,1.731,0,0,0,.9.33v.34h-4.55v-.34a4.025,4.025,0,0,0,1.01-.17c.15-.07.23-.24.23-.5a2.119,2.119,0,0,0-.09-.47,6.631,6.631,0,0,0-.24-.71l-.72-1.76h-4.71c-.46,1.19-.74,1.92-.83,2.19a2.073,2.073,0,0,0-.14.63.642.642,0,0,0,.37.64,3.079,3.079,0,0,0,.85.16v.34h-3.56Zm7.7-4.69-2.05-5.03-2.06,5.03Z"/><path d="M1103.11,13.88a2.569,2.569,0,0,0,1.28-.36c.2-.17.29-.6.29-1.28V4.12a1.938,1.938,0,0,0-.29-1.27,2.1,2.1,0,0,0-1.28-.37V2.14h5.05v.34a2.474,2.474,0,0,0-1.32.33A1.545,1.545,0,0,0,1106.5,4v8.77a.952.952,0,0,0,.1.48.547.547,0,0,0,.44.22c.13.02.28.03.42.04s.43.01.83.01a8.567,8.567,0,0,0,3.23-.4,4.2,4.2,0,0,0,1.63-2.05h.45l-.87,3.16h-9.62Z"/><path d="M1033.15,32.07a2.97,2.97,0,0,0,1.49-.42c.23-.2.35-.69.35-1.49V20.7a2.224,2.224,0,0,0-.34-1.5,2.564,2.564,0,0,0-1.5-.42V18.4h5.62a10.865,10.865,0,0,1,4.8.96c2.36,1.14,3.54,3.19,3.54,6.13a7.246,7.246,0,0,1-.64,3.02,6.088,6.088,0,0,1-1.92,2.42,6.494,6.494,0,0,1-1.69.95,11.28,11.28,0,0,1-3.93.6h-5.79v-.41Zm4.2-.56a2.108,2.108,0,0,0,1.03.17,7.438,7.438,0,0,0,4.02-.99q2.415-1.515,2.42-5.19a6.04,6.04,0,0,0-2-4.93,6.9,6.9,0,0,0-4.53-1.41,1.87,1.87,0,0,0-.95.16c-.17.1-.25.33-.25.69V30.83A.788.788,0,0,0,1037.35,31.51Z"/><path d="M1047.48,32.13a2.569,2.569,0,0,0,1.28-.36,1.86,1.86,0,0,0,.29-1.28V22.37a1.938,1.938,0,0,0-.29-1.27,2.1,2.1,0,0,0-1.28-.37v-.34h9.5l.06,2.61h-.45a2.638,2.638,0,0,0-.68-1.56,3.713,3.713,0,0,0-2.03-.35h-2.44c-.26,0-.42.04-.49.13a.937.937,0,0,0-.09.49v4.07h2.76a2.085,2.085,0,0,0,1.46-.35,3.048,3.048,0,0,0,.51-1.4h.42v4.22h-.42a2.983,2.983,0,0,0-.52-1.4,2.064,2.064,0,0,0-1.45-.34h-2.76v4.52c0,.36.11.58.34.64a10.63,10.63,0,0,0,2.02.1,6.716,6.716,0,0,0,2.69-.41,3.7,3.7,0,0,0,1.56-1.97h.5l-.81,3.08h-9.67v-.34Z"/><path d="M1058.86,28.8a6.759,6.759,0,0,0,1.06,1.96,3.3,3.3,0,0,0,2.64,1.27,2.157,2.157,0,0,0,1.48-.55,1.934,1.934,0,0,0,.62-1.54,2.177,2.177,0,0,0-.63-1.55,10.915,10.915,0,0,0-1.73-1.26l-1.53-.97a5.587,5.587,0,0,1-1.1-.9,2.813,2.813,0,0,1-.76-1.91,3.152,3.152,0,0,1,.9-2.3,3.187,3.187,0,0,1,2.38-.92,4.351,4.351,0,0,1,1.47.31,7,7,0,0,0,.98.31.558.558,0,0,0,.46-.16,1.349,1.349,0,0,0,.2-.45h.37l.39,3.89h-.43a4.116,4.116,0,0,0-1.4-2.45,3.288,3.288,0,0,0-1.91-.7,1.988,1.988,0,0,0-1.28.44,1.5,1.5,0,0,0-.55,1.23,1.792,1.792,0,0,0,.42,1.2,5.392,5.392,0,0,0,1.3,1.06l1.57.99a8.408,8.408,0,0,1,2.08,1.7,2.952,2.952,0,0,1,.6,1.85,3.092,3.092,0,0,1-1.06,2.4,3.888,3.888,0,0,1-2.71.96,5.256,5.256,0,0,1-1.73-.32,6.674,6.674,0,0,0-1.04-.32.435.435,0,0,0-.42.2,1.227,1.227,0,0,0-.14.42h-.39l-.53-3.89Z"/><path d="M1067.44,32.13a2.838,2.838,0,0,0,1.41-.33c.22-.17.32-.6.32-1.31V22.37a1.857,1.857,0,0,0-.32-1.3,2.489,2.489,0,0,0-1.41-.34v-.34h5.29v.34a2.591,2.591,0,0,0-1.42.34,1.79,1.79,0,0,0-.32,1.3v8.12c0,.7.11,1.14.32,1.31a2.92,2.92,0,0,0,1.42.33v.34h-5.29Z"/><path d="M1081.28,20.47a7.366,7.366,0,0,0,1.15.29.8.8,0,0,0,.55-.15,1.238,1.238,0,0,0,.28-.44h.39l.14,3.84h-.41a7.128,7.128,0,0,0-1.14-1.98,3.568,3.568,0,0,0-2.75-1.14,4.107,4.107,0,0,0-3.03,1.33c-.87.89-1.31,2.35-1.31,4.39a5.608,5.608,0,0,0,1.3,3.94,4.212,4.212,0,0,0,3.21,1.42,5.616,5.616,0,0,0,.76-.06,4.376,4.376,0,0,0,.83-.2,2.483,2.483,0,0,0,.8-.37.64.64,0,0,0,.16-.46V27.97a1.974,1.974,0,0,0-.29-1.32,2.355,2.355,0,0,0-1.28-.32v-.34h4.56v.34a1.662,1.662,0,0,0-.88.22,1.466,1.466,0,0,0-.37,1.18v3.59c0,.21-.51.5-1.54.86a8.967,8.967,0,0,1-2.97.53,6.507,6.507,0,0,1-4.42-1.56,5.82,5.82,0,0,1-1.98-4.62,6.452,6.452,0,0,1,1.58-4.37,5.8,5.8,0,0,1,4.61-2.01A8.85,8.85,0,0,1,1081.28,20.47Z"/><path d="M1085.23,32.13a2.146,2.146,0,0,0,1.42-.51,3.41,3.41,0,0,0,.31-1.84V21.74l-.24-.29a1.9,1.9,0,0,0-.67-.58,2.6,2.6,0,0,0-.83-.13V20.4h3.05l6.9,8.73V23.06a2.976,2.976,0,0,0-.44-1.95,2.229,2.229,0,0,0-1.28-.38v-.34h4.2v.34a2.016,2.016,0,0,0-1.36.51,3.265,3.265,0,0,0-.34,1.84v9.61h-.31l-7.91-10.01v7.11a2.986,2.986,0,0,0,.43,1.95,2.117,2.117,0,0,0,1.25.4v.34h-4.2v-.35Z"/><path d="M1033.05,50.33a2.934,2.934,0,0,0,1.49-.42c.23-.2.34-.69.34-1.49V38.96a2.213,2.213,0,0,0-.34-1.48,2.411,2.411,0,0,0-1.5-.43v-.39h11.07l.07,3.04h-.53a3.089,3.089,0,0,0-.79-1.82,4.3,4.3,0,0,0-2.36-.41h-2.84q-.465,0-.57.15a1.065,1.065,0,0,0-.11.57v4.75h3.22a2.408,2.408,0,0,0,1.7-.4,3.578,3.578,0,0,0,.59-1.63h.49v4.91h-.49a3.734,3.734,0,0,0-.6-1.64,2.394,2.394,0,0,0-1.69-.4H1037v5.27q0,.63.39.75a12.82,12.82,0,0,0,2.35.11,7.889,7.889,0,0,0,3.13-.47,4.276,4.276,0,0,0,1.81-2.29h.58l-.95,3.59h-11.27v-.41Z"/><path d="M1045.15,50.38a1.98,1.98,0,0,0,1.09-.39,15.56,15.56,0,0,0,1.48-1.71l2.76-3.49-1.96-2.93a14.8,14.8,0,0,0-1.8-2.38,2.125,2.125,0,0,0-1.38-.5v-.34h5.38v.34a4.017,4.017,0,0,0-1.01.11.489.489,0,0,0-.36.51,1.491,1.491,0,0,0,.17.6c.06.12.14.25.24.41l1.84,2.73,2.01-2.49a5.3,5.3,0,0,0,.6-.87.892.892,0,0,0,.1-.36.51.51,0,0,0-.38-.53,3.528,3.528,0,0,0-.85-.09v-.34h4.24V39a2.486,2.486,0,0,0-1.11.23,6.074,6.074,0,0,0-1.54,1.5l-2.59,3.31,3.39,5.01a3.628,3.628,0,0,0,.9,1.03,2.833,2.833,0,0,0,1.06.32v.34h-5.26V50.4a3.754,3.754,0,0,0,1.06-.13.445.445,0,0,0,.3-.45,2.226,2.226,0,0,0-.4-.95c-.27-.44-1-1.56-2.2-3.36l-2.1,2.69c-.31.4-.52.69-.64.87a1.45,1.45,0,0,0-.29.65.573.573,0,0,0,.45.55,3.519,3.519,0,0,0,.91.14v.34h-4.13v-.37Z"/><path d="M1065.99,38.73a8.438,8.438,0,0,0,1.14.29.923.923,0,0,0,.48-.14.714.714,0,0,0,.31-.45h.38l.17,4.1h-.41a6.123,6.123,0,0,0-.93-1.97,3.555,3.555,0,0,0-2.96-1.41,3.734,3.734,0,0,0-3.07,1.52,6.607,6.607,0,0,0-1.19,4.17,5.8,5.8,0,0,0,1.25,3.9,4.012,4.012,0,0,0,3.17,1.46,5.028,5.028,0,0,0,2.56-.68,7.868,7.868,0,0,0,1.48-1.16l.33.34a6.211,6.211,0,0,1-1.48,1.35,6.263,6.263,0,0,1-7.84-.9,6.266,6.266,0,0,1-1.56-4.34,6.366,6.366,0,0,1,1.65-4.47,5.839,5.839,0,0,1,4.52-1.9A6.678,6.678,0,0,1,1065.99,38.73Z"/><path d="M1069.01,50.38a2.569,2.569,0,0,0,1.28-.36c.2-.17.29-.6.29-1.28V40.62a1.938,1.938,0,0,0-.29-1.27,2.1,2.1,0,0,0-1.28-.37v-.34h9.5l.06,2.61h-.45a2.638,2.638,0,0,0-.68-1.56,3.713,3.713,0,0,0-2.03-.35h-2.44c-.26,0-.42.04-.49.13a.937.937,0,0,0-.09.49v4.07h2.76a2.085,2.085,0,0,0,1.46-.35,3.048,3.048,0,0,0,.51-1.4h.42V46.5h-.42a2.983,2.983,0,0,0-.52-1.4,2.064,2.064,0,0,0-1.45-.34h-2.76v4.52c0,.36.11.58.34.64a10.63,10.63,0,0,0,2.02.1,6.716,6.716,0,0,0,2.69-.41,3.7,3.7,0,0,0,1.56-1.97h.5l-.81,3.08h-9.67v-.34Z"/><path d="M1079.44,50.38a2.569,2.569,0,0,0,1.28-.36c.2-.17.29-.6.29-1.28V40.62a1.938,1.938,0,0,0-.29-1.27,2.1,2.1,0,0,0-1.28-.37v-.34h5.05v.34a2.474,2.474,0,0,0-1.32.33,1.545,1.545,0,0,0-.34,1.19v8.77a.952.952,0,0,0,.1.48.547.547,0,0,0,.44.22c.13.02.28.03.42.04s.43.01.84.01a8.566,8.566,0,0,0,3.23-.4,4.2,4.2,0,0,0,1.63-2.05h.45l-.87,3.16h-9.62v-.35Z"/><path d="M1089.86,50.38a2.569,2.569,0,0,0,1.28-.36,1.86,1.86,0,0,0,.29-1.28V40.62a1.938,1.938,0,0,0-.29-1.27,2.1,2.1,0,0,0-1.28-.37v-.34h5.05v.34a2.474,2.474,0,0,0-1.32.33,1.545,1.545,0,0,0-.34,1.19v8.77a.952.952,0,0,0,.1.48.547.547,0,0,0,.44.22c.13.02.28.03.42.04s.43.01.84.01a8.566,8.566,0,0,0,3.23-.4,4.2,4.2,0,0,0,1.63-2.05h.45l-.87,3.16h-9.62v-.35Z"/><path d="M1100.29,50.38a2.569,2.569,0,0,0,1.28-.36,1.86,1.86,0,0,0,.29-1.28V40.62a1.938,1.938,0,0,0-.29-1.27,2.1,2.1,0,0,0-1.28-.37v-.34h9.5l.06,2.61h-.45a2.638,2.638,0,0,0-.68-1.56,3.713,3.713,0,0,0-2.03-.35h-2.44c-.26,0-.42.04-.49.13a.937.937,0,0,0-.09.49v4.07h2.76a2.085,2.085,0,0,0,1.46-.35,3.048,3.048,0,0,0,.51-1.4h.42V46.5h-.42a2.983,2.983,0,0,0-.52-1.4,2.064,2.064,0,0,0-1.45-.34h-2.76v4.52c0,.36.11.58.34.64a10.63,10.63,0,0,0,2.02.1,6.716,6.716,0,0,0,2.69-.41,3.7,3.7,0,0,0,1.56-1.97h.5l-.81,3.08h-9.67v-.34Z"/><path d="M1110.71,50.38a2.146,2.146,0,0,0,1.42-.51,3.41,3.41,0,0,0,.31-1.84V39.99l-.24-.29a1.9,1.9,0,0,0-.67-.58,2.6,2.6,0,0,0-.83-.13v-.34h3.05l6.9,8.73V41.31a2.976,2.976,0,0,0-.44-1.95,2.23,2.23,0,0,0-1.28-.38v-.34h4.2v.34a2.016,2.016,0,0,0-1.36.51,3.179,3.179,0,0,0-.34,1.84v9.61h-.31l-7.91-10.01v7.11a2.986,2.986,0,0,0,.43,1.95,2.117,2.117,0,0,0,1.25.4v.34h-4.2v-.35Z"/><path d="M1131.54,38.73a8.438,8.438,0,0,0,1.14.29.923.923,0,0,0,.48-.14.714.714,0,0,0,.31-.45h.38l.17,4.1h-.41a6.123,6.123,0,0,0-.93-1.97,3.555,3.555,0,0,0-2.96-1.41,3.734,3.734,0,0,0-3.07,1.52,6.546,6.546,0,0,0-1.19,4.17,5.8,5.8,0,0,0,1.25,3.9,4.012,4.012,0,0,0,3.17,1.46,5.028,5.028,0,0,0,2.56-.68,7.868,7.868,0,0,0,1.48-1.16l.33.34a6.211,6.211,0,0,1-1.48,1.35,6.263,6.263,0,0,1-7.84-.9,6.266,6.266,0,0,1-1.56-4.34,6.366,6.366,0,0,1,1.65-4.47,5.839,5.839,0,0,1,4.52-1.9A6.679,6.679,0,0,1,1131.54,38.73Z"/><path d="M1134.56,50.38a2.569,2.569,0,0,0,1.28-.36c.2-.17.29-.6.29-1.28V40.62a1.938,1.938,0,0,0-.29-1.27,2.1,2.1,0,0,0-1.28-.37v-.34h9.5l.06,2.61h-.45a2.638,2.638,0,0,0-.68-1.56,3.713,3.713,0,0,0-2.03-.35h-2.44c-.26,0-.42.04-.49.13a.937.937,0,0,0-.09.49v4.07h2.76a2.085,2.085,0,0,0,1.46-.35,3.048,3.048,0,0,0,.51-1.4h.42V46.5h-.42a2.983,2.983,0,0,0-.52-1.4,2.064,2.064,0,0,0-1.45-.34h-2.76v4.52c0,.36.11.58.34.64a10.63,10.63,0,0,0,2.02.1,6.716,6.716,0,0,0,2.69-.41,3.7,3.7,0,0,0,1.56-1.97h.5l-.81,3.08h-9.67v-.34Z"/><path d="M1033.12,68.98v-.39a1.682,1.682,0,0,0,1.21-.62,17,17,0,0,0,1.38-2.87l4.34-10.44h.42l5.19,12.06a5.1,5.1,0,0,0,.83,1.48,1.95,1.95,0,0,0,1.04.39v.39h-5.3v-.39a4.873,4.873,0,0,0,1.18-.2c.18-.08.26-.27.26-.58a2.465,2.465,0,0,0-.1-.55,5.505,5.505,0,0,0-.29-.83l-.83-2.05h-5.49c-.54,1.39-.86,2.24-.97,2.55a2.3,2.3,0,0,0-.16.73.734.734,0,0,0,.43.74,3.781,3.781,0,0,0,1,.19v.39Zm8.98-5.47-2.39-5.86-2.4,5.86Z"/><path d="M1051.75,56.9v.34a2.462,2.462,0,0,0-.76.1.552.552,0,0,0-.4.55,1.407,1.407,0,0,0,.05.35c.03.11.08.26.14.44l2.59,6.86,1.89-5.11-.84-2.24a1.347,1.347,0,0,0-.71-.81,2.253,2.253,0,0,0-.85-.13V56.9h4.79v.34a3.5,3.5,0,0,0-.93.1.6.6,0,0,0-.4.62,1.142,1.142,0,0,0,.03.28c.02.08.08.25.17.49l2.59,6.84,2.24-6.19a4.649,4.649,0,0,0,.26-.94,1.946,1.946,0,0,0,.04-.37.7.7,0,0,0-.47-.7,2.14,2.14,0,0,0-.79-.13V56.9h3.55v.34a2.109,2.109,0,0,0-.73.22,1.586,1.586,0,0,0-.68.89l-1.87,5.44-.72,2.1-1.13,3.29h-.28l-.78-2.09-2.07-5.62-2.75,7.71h-.27l-1.33-3.78-1.51-4.28a24.428,24.428,0,0,0-1.3-3.25,1.367,1.367,0,0,0-1.16-.65V56.9Z"/><path d="M1061.95,68.98v-.34a1.445,1.445,0,0,0,1.04-.53,14.9,14.9,0,0,0,1.18-2.46l3.73-8.96h.36l4.46,10.35a4.291,4.291,0,0,0,.71,1.27,1.731,1.731,0,0,0,.9.33v.34h-4.55v-.34a4.575,4.575,0,0,0,1.01-.17c.15-.07.23-.23.23-.5a2.119,2.119,0,0,0-.09-.47,6.631,6.631,0,0,0-.24-.71l-.72-1.76h-4.71c-.46,1.19-.74,1.92-.83,2.19a2.073,2.073,0,0,0-.14.63.642.642,0,0,0,.37.64,3.079,3.079,0,0,0,.85.16v.34h-3.56Zm7.7-4.69-2.05-5.03-2.06,5.03Z"/><path d="M1074.3,68.64a1.993,1.993,0,0,0,1.28-.41,2.632,2.632,0,0,0,.25-1.45V58.87a1.934,1.934,0,0,0-.28-1.26,2.028,2.028,0,0,0-1.25-.38V56.9h4.95a7.134,7.134,0,0,1,2.58.4,2.779,2.779,0,0,1,1.96,2.79,2.576,2.576,0,0,1-.87,2.09,4.673,4.673,0,0,1-2.36.96l3.69,4.63a2.549,2.549,0,0,0,.68.62,2.293,2.293,0,0,0,.87.25v.34h-2.88l-4.47-5.62-.79.04V67c0,.68.1,1.1.3,1.28a2.472,2.472,0,0,0,1.31.36v.34h-4.97Zm6.11-6.33a2.212,2.212,0,0,0,1.42-2.24,2.148,2.148,0,0,0-1.28-2.16,4.363,4.363,0,0,0-1.81-.31,2.293,2.293,0,0,0-.93.11c-.11.07-.17.25-.17.52v4.49A9.113,9.113,0,0,0,1080.41,62.31Z"/><path d="M1085.82,68.64a2.606,2.606,0,0,0,1.28-.36c.2-.17.3-.6.3-1.28V58.88a1.915,1.915,0,0,0-.29-1.28,2.181,2.181,0,0,0-1.28-.36V56.9h4.82a9.311,9.311,0,0,1,4.12.82,5.325,5.325,0,0,1,3.04,5.26,6.211,6.211,0,0,1-.55,2.59,5.27,5.27,0,0,1-1.65,2.08,5.381,5.381,0,0,1-1.45.81,9.7,9.7,0,0,1-3.37.52h-4.97Zm3.6-.48a1.764,1.764,0,0,0,.89.14,6.346,6.346,0,0,0,3.45-.85q2.085-1.305,2.08-4.45a5.191,5.191,0,0,0-1.71-4.23,5.9,5.9,0,0,0-3.89-1.21,1.741,1.741,0,0,0-.82.13c-.14.09-.21.29-.21.59v9.29A.69.69,0,0,0,1089.42,68.16Z"/><path d="M1099.1,65.3a6.759,6.759,0,0,0,1.06,1.96,3.3,3.3,0,0,0,2.64,1.27,2.157,2.157,0,0,0,1.48-.55,1.934,1.934,0,0,0,.62-1.54,2.177,2.177,0,0,0-.63-1.55,10.915,10.915,0,0,0-1.73-1.26l-1.53-.97a5.587,5.587,0,0,1-1.1-.9,2.813,2.813,0,0,1-.76-1.91,3.152,3.152,0,0,1,.9-2.3,3.187,3.187,0,0,1,2.38-.92,4.351,4.351,0,0,1,1.47.31,5.723,5.723,0,0,0,.98.31.558.558,0,0,0,.46-.16,1.349,1.349,0,0,0,.2-.45h.37l.39,3.89h-.43a4.116,4.116,0,0,0-1.4-2.45,3.272,3.272,0,0,0-1.91-.69,1.988,1.988,0,0,0-1.28.44,1.5,1.5,0,0,0-.55,1.23,1.792,1.792,0,0,0,.42,1.2,5.392,5.392,0,0,0,1.3,1.06l1.57.99a8.408,8.408,0,0,1,2.08,1.7,2.952,2.952,0,0,1,.6,1.85,3.092,3.092,0,0,1-1.06,2.4,3.888,3.888,0,0,1-2.71.96,5.256,5.256,0,0,1-1.73-.32,6.674,6.674,0,0,0-1.04-.32.435.435,0,0,0-.42.2,1.227,1.227,0,0,0-.14.42h-.39l-.53-3.89h.42Z"/><path class="a" d="M1010.18,31.19a8.32,8.32,0,1,1-8.32-8.32A8.32,8.32,0,0,1,1010.18,31.19Z"/><rect class="b" width="55.17" height="68.79" transform="translate(974.2 0.22)"/><path class="c" d="M1002.06,31.48l25.48-.51v-.71l-17.26-.36,16.86-3.4-.11-.74-17,2.76,15.98-6.24-.24-.75-16.36,5.56,14.71-8.92-.31-.58-15.21,8.43,13.02-11.32-.52-.65-13.52,10.84,11.02-13.22-.61-.56L1006.5,24.03l8.46-14.95-.76-.46-8.92,14.84,5.7-16.35-.67-.26L1004,23l2.62-17.12-.61-.06-3.34,17.03-.35-17.4h-.72l-.36,17.4L997.91,5.82l-.62.06L999.92,23,993.6,6.85l-.66.26,5.7,16.35L989.72,8.62l-.76.46,8.45,14.95L985.93,11.11l-.62.56,11.03,13.22L982.81,14.05l-.51.65,13.02,11.32L980.1,17.59l-.31.58,14.71,8.92-16.35-5.56-.24.75,15.98,6.24-17-2.76-.12.74,16.87,3.4-17.26.36v.71l25.48.51Z"/><path class="c" d="M1014.63,35.6H988.99l-.59-2.26h26.82Z"/><path class="c" d="M1010.89,39.04H992.85l-.58-2.26h19.2Z"/><path class="c" d="M995.53,40.29h12.67l-6.23,24.88Z"/></g></svg>