<?xml version="1.0" standalone="no"?>
<!DOCTYPE svg PUBLIC "-//W3C//DTD SVG 20010904//EN"
 "http://www.w3.org/TR/2001/REC-SVG-20010904/DTD/svg10.dtd">
<svg version="1.0" xmlns="http://www.w3.org/2000/svg"
 width="645.000000pt" height="645.000000pt" viewBox="0 0 645.000000 645.000000"
 preserveAspectRatio="xMidYMid meet">
<metadata>
Created by potrace 1.11, written by Peter Selinger 2001-2013
</metadata>
<g transform="translate(0.000000,645.000000) scale(0.100000,-0.100000)"
fill="#000000" stroke="none">
<path d="M92 3530 c-68 -41 -72 -59 -72 -305 0 -246 4 -264 72 -305 32 -20 53
-20 1163 -20 1082 0 1132 1 1165 19 19 10 45 36 57 57 21 36 23 51 23 215 0
166 1 178 23 209 57 84 102 91 367 60 333 -39 569 -84 715 -138 93 -35 165
-102 165 -154 0 -41 -35 -89 -81 -113 -67 -35 -212 -89 -324 -120 l-120 -34
286 0 c277 -1 288 0 357 23 169 58 292 145 292 207 0 153 -661 321 -1530 389
-444 34 -488 33 -538 -13 -50 -46 -52 -59 -52 -327 l0 -250 -743 2 c-721 3
-743 4 -776 23 -72 43 -75 53 -81 283 -6 230 -11 253 -73 291 -30 18 -50 21
-148 21 -96 0 -119 -3 -147 -20z"/>
<path d="M6030 3535 c-889 -63 -1527 -192 -1688 -343 -83 -78 -3 -168 226
-257 l91 -35 293 1 293 1 -105 28 c-196 52 -351 120 -394 170 -43 51 -36 94
22 149 95 91 351 155 843 211 221 26 272 23 320 -18 52 -43 59 -73 59 -254 0
-187 12 -229 72 -266 31 -19 50 -22 149 -22 128 0 163 12 199 72 18 30 20 51
20 249 0 208 -1 217 -23 249 -30 45 -75 70 -134 75 -26 2 -136 -3 -243 -10z"/>
</g>
</svg>
