<svg xmlns="http://www.w3.org/2000/svg" width="147.731" height="24.956" viewBox="0 0 147.731 24.956"><defs><style>.a{fill:#7f8083;fill-rule:evenodd;}</style></defs><g transform="translate(0 0)"><path class="a" d="M197.942,116.269a6.041,6.041,0,0,0,2.082-4.318c0-3.315-1.953-6.811-7.094-6.811h-11v23.645h12.414a6.82,6.82,0,0,0,6.58-6.631,7.22,7.22,0,0,0-2.981-5.886ZM187.4,110.28h4.626a2.087,2.087,0,0,1,1.8,2.21,2.174,2.174,0,0,1-2.262,2.21H187.4V110.28ZM191.774,124H187.4V119.2h4.549a2.415,2.415,0,1,1-.18,4.806Z" transform="translate(-181.93 -104.369)"/><path class="a" d="M200.783,104.96c-5.32,0-10.923,4.318-10.923,12.157,0,7.222,4.806,12.337,10.923,12.337s10.949-5.14,10.949-12.337c-.026-7.839-5.6-12.157-10.949-12.157Zm0,19.122c-3.136,0-5.449-3.264-5.449-7.145,0-3.778,3.058-6.5,5.449-6.5,2.416,0,5.474,2.724,5.474,6.5,0,3.907-2.365,7.145-5.474,7.145Z" transform="translate(-169.479 -104.652)"/><path class="a" d="M211.743,114.992c-3.881-.591-6.168-1.105-6.168-2.853,0-1.311.694-2.133,2.467-2.133a10.122,10.122,0,0,1,5.217,1.876l3.187-3.778a16.581,16.581,0,0,0-7.942-3.264c-5.526,0-9,3.315-9,7.608,0,4.446,3.033,6.477,6.066,6.939,3.393.514,5.783,1.234,5.783,2.93,0,1.362-1.414,2.082-3.007,2.082a7.934,7.934,0,0,1-5.911-2.853c-1.619,1.619-3.65,3.778-3.65,3.778a11.019,11.019,0,0,0,9.1,4.318c6.245,0,9.587-4.446,9.587-7.608a6.827,6.827,0,0,0-5.731-7.042Z" transform="translate(-155.458 -104.84)"/><path class="a" d="M217.776,110.544c1.8,0,2.673.977,4.241,2.724l4.5-3.058c-2.21-3.315-4.935-5.32-9.047-5.32-5.834,0-10.717,5.4-10.717,12.414s4.883,12.414,10.717,12.414c4.112,0,6.811-2,9.047-5.32l-4.5-3.058c-1.542,1.748-2.416,2.724-4.241,2.724-3.007,0-5.372-2.544-5.372-6.759-.026-4.215,2.365-6.759,5.372-6.759Z" transform="translate(-142.959 -104.762)"/><path class="a" d="M228.323,113.416h-7.145V105.14H215.37v23.671h5.808v-9.432h7.145v9.432h5.783V105.14h-5.783Z" transform="translate(-129.425 -104.369)"/><path class="a" d="M246.712,108.579a8.52,8.52,0,0,0-2.262-1.8v4.189h-8.661V106.78a8.414,8.414,0,0,0-2.236,1.773,8.875,8.875,0,0,0,0,11.951,8.017,8.017,0,0,0,2.236,1.8v-4.318h8.661V122.3a8.52,8.52,0,0,0,2.262-1.8,8.993,8.993,0,0,0,2.313-5.988,8.863,8.863,0,0,0-2.313-5.937ZM233.579,118.6a7.831,7.831,0,0,1-1.157-4.061,7.922,7.922,0,0,1,1.157-4.087,6.67,6.67,0,0,1,1.131-1.414l.026,11.052a9.261,9.261,0,0,1-1.157-1.491Zm10.872-1.748h-8.661v-4.678h8.661v4.678Zm1.105,3.238.026-11.052a8.682,8.682,0,0,1,1.157,1.414,7.853,7.853,0,0,1,1.157,4.087,8.08,8.08,0,0,1-1.157,4.061,11.158,11.158,0,0,1-1.182,1.491Z" transform="translate(-104.507 -101.794)"/><path class="a" d="M248.643,107.038a12.041,12.041,0,1,0,5.526,10.126,12.106,12.106,0,0,0-5.526-10.126Zm0,18.762a10.846,10.846,0,1,1,0-17.271,10.795,10.795,0,0,1,0,17.271Z" transform="translate(-106.438 -104.416)"/></g></svg>