<svg xmlns="http://www.w3.org/2000/svg" width="95.737" height="34.657" viewBox="0 0 95.737 34.657"><defs><style>.a{fill:#7f8083;fill-rule:evenodd;}</style></defs><path class="a" d="M368.478,241.023c1.105-.9,1.542-2.75,1.542-4.626v-3.238a15.384,15.384,0,0,0-.18-2.8,5.32,5.32,0,0,0-.848-1.8,3.949,3.949,0,0,0,.848-1.388,8.093,8.093,0,0,0,.206-2.185v-2.416a9.789,9.789,0,0,0-.437-3.727,4.566,4.566,0,0,0-2.313-2.39,9.371,9.371,0,0,0-3.752-.488H356.09v25.83h7.376c1.953,0,3.907.128,5.012-.771Zm-7.582-20.33h1.85a3.015,3.015,0,0,1,1.8.411,1.855,1.855,0,0,1,.385,1.439v2.082a1.755,1.755,0,0,1-.591,1.388,2.992,2.992,0,0,1-1.593.231H360.9v-5.551Zm0,10.486h1.85a3.015,3.015,0,0,1,1.8.411,1.855,1.855,0,0,1,.385,1.439v2.082a1.755,1.755,0,0,1-.591,1.388,2.992,2.992,0,0,1-1.593.231H360.9v-5.551Zm21.9,10.615h4.96v-8.636a15.387,15.387,0,0,0-.18-2.8,5.322,5.322,0,0,0-.848-1.8,3.95,3.95,0,0,0,.848-1.388,8.092,8.092,0,0,0,.206-2.185v-2.416a9.789,9.789,0,0,0-.437-3.727,4.565,4.565,0,0,0-2.313-2.39,9.371,9.371,0,0,0-3.752-.488h-7.453v25.83h4.858l-.051-10.538h4.164v10.537Zm-.514-20.664a1.855,1.855,0,0,1,.385,1.439v2.082a1.756,1.756,0,0,1-.591,1.388,2.993,2.993,0,0,1-1.593.231h-1.85v-5.526h1.85a2.69,2.69,0,0,1,1.8.386Zm13.776-5.372a4.142,4.142,0,0,1,.308-2.339,2.321,2.321,0,0,1,3.855,0,4.142,4.142,0,0,1,.334,2.339v10.615h-4.5V215.759Zm4.5,26.035h4.421V214.91a12.826,12.826,0,0,0-.36-4.421,4.413,4.413,0,0,0-2.39-2.544,10.365,10.365,0,0,0-3.752-.591,10.05,10.05,0,0,0-3.752.437,5.053,5.053,0,0,0-2.75,2.519c-.591,1.208-.437,2.776-.437,4.241v27.243h4.5V230.845h4.5v10.949Zm9.407-2.776a5.044,5.044,0,0,0,2.75,2.519,9.988,9.988,0,0,0,3.752.463,9.141,9.141,0,0,0,3.778-.643,4.974,4.974,0,0,0,2.442-2.75,11.855,11.855,0,0,0,.283-4.189V215.887h-4.318l-.1,17.682a4.144,4.144,0,0,1-.334,2.339,2.321,2.321,0,0,1-3.855,0,4.143,4.143,0,0,1-.334-2.339V215.887H409.5l-.051,18.839a9.8,9.8,0,0,0,.514,4.292ZM426.82,222.9v18.89h4.5l-.026-17.708a4.143,4.143,0,0,1,.334-2.339,2.321,2.321,0,0,1,3.855,0,4.143,4.143,0,0,1,.334,2.339v17.708h4.369l.051-18.556a11.855,11.855,0,0,0-.283-4.189,4.973,4.973,0,0,0-2.442-2.75,9.141,9.141,0,0,0-3.778-.643,9.367,9.367,0,0,0-3.727.463,5,5,0,0,0-2.673,2.519,10.5,10.5,0,0,0-.514,4.266Zm19.97-1.516h.694v-1.7h1.028a.792.792,0,0,1,.231.026.605.605,0,0,1,.257.128.76.76,0,0,1,.154.514l.026.488a1.192,1.192,0,0,0,.1.54h.771v-.129a.3.3,0,0,1-.128-.128.656.656,0,0,1-.051-.334l-.026-.591a.816.816,0,0,0-.051-.334,1.056,1.056,0,0,0-.205-.334.357.357,0,0,0-.257-.129.854.854,0,0,0,.411-.334,1.008,1.008,0,0,0,.154-.617,1.363,1.363,0,0,0-.206-.694,1.094,1.094,0,0,0-.514-.385,1.911,1.911,0,0,0-.668-.077h-1.773v4.087Zm1.671-3.521a1.014,1.014,0,0,1,.54.1.545.545,0,0,1,.231.514.423.423,0,0,1-.051.257.518.518,0,0,1-.18.231.956.956,0,0,1-.591.129h-.977V217.84h1.028Zm-.077-2a3.394,3.394,0,0,0-1.722.463,3.479,3.479,0,0,0-1.259,1.259,3.436,3.436,0,0,0,0,3.444,3.48,3.48,0,0,0,1.259,1.259,3.436,3.436,0,0,0,3.444,0,3.479,3.479,0,0,0,1.259-1.259,3.436,3.436,0,0,0,0-3.444,3.48,3.48,0,0,0-1.259-1.259,3.393,3.393,0,0,0-1.722-.463Zm2.981,3.5a2.9,2.9,0,0,1-.385,1.465A3.1,3.1,0,0,1,449.9,221.9a2.976,2.976,0,0,1-2.93,0,3.1,3.1,0,0,1-1.079-1.079,2.976,2.976,0,0,1,0-2.93,3.1,3.1,0,0,1,1.079-1.079,2.977,2.977,0,0,1,2.93,0,3.1,3.1,0,0,1,1.079,1.079,3.189,3.189,0,0,1,.385,1.465Z" transform="translate(-356.09 -207.347)"/></svg>