<svg xmlns="http://www.w3.org/2000/svg" width="162.109" height="53.063" viewBox="0 0 162.109 53.063"><defs><style>.a{fill:#7f8083;fill-rule:evenodd;}</style></defs><path class="a" d="M12.47,238.257c.9-5.089,5.937-14.187,16.706-22.823,6.837-5.5,19.687-11.694,27.089-11.694,3.264,0,5.4,1.825,5.6,4.318l-2.853.874c-.591-2.956-3.213-3.83-11.231-.334C40.407,211.81,29.1,223.042,29.1,231.292c0,7.376,4.78,8.43,7.145,8.43,5.526,0,6.991-2.416,13.827-9.021,7.145-6.888,13.57-7.71,20.535-7.916.437-.026.668.026.283.514-.668.822-9.561,13.776-10.178,15.549-.617,1.748,0,2.57,2.776.8a26.5,26.5,0,0,0,5.4-4.5c1.208-1.748,7.2-11.077,7.4-11.514.1-.206.077-.206.308-.257a34.528,34.528,0,0,0,3.958-1.054c.231-.077.411.077.206.36-.308.411-3.264,5.037-3.264,5.037,3.161-2.8,6.014-5.089,9.021-4.986,3.315.1,4.292,3.264,1.9,8.122-1.979,4.009-5.14,7.993-7.3,9.3a13.845,13.845,0,0,0,9.895-6.348c3.315-4.832,5.063-7.71,5.063-7.71-.437-.051-1.516-.051-1.516-.051l2.776-4.292a43.446,43.446,0,0,0,4.729-1c.36-.1.386.026.1.283-.283.283-1.516,2.185-1.516,2.185a40.78,40.78,0,0,1,4.421-.643c1.645,0,3.907.745,2.133,4.292-2.622,5.269-5.68,10.846-6.168,11.823s-.668,1.928,1.465,1.439a21.548,21.548,0,0,0,3.752-1.8c.1-2.056.386-4.883,4.446-9.509s9.021-6.22,12.234-6.22c4.5,0,4.523,3.315.411,6.888a70.316,70.316,0,0,1-13.93,9.175c.72,1.182,2.056,2.622,5.731.874,6.554-3.11,13.056-9.073,19.122-15.6a2.474,2.474,0,0,0,.771-2.082s.822-.283,1.465-.54c.257-.1.257-.026.257.308a4.736,4.736,0,0,0,.771,2.57c1.953,2.981,1.568,8.918.977,10.615,2.056-1.337,8.79-7.736,11.488-10.923.668-.8.848-1.131.694-2.03,0,0,.668-.231,1.311-.437.36-.1.463-.1.463.231a3.864,3.864,0,0,0,.925,2.724c1,1.645,1.979,6.374.668,10.974,1.028-1.208,3.136-2.39,6.811-6.759,2.981-3.547,7.5-6.091,10.46-6.091,4.96,0,3.958,7.248-1.079,13.6-5.063,6.425-8.661,6.528-11.488,5.629-1.851-.591-2.544-3.136-1.928-6.837-1.259,1.208-5.68,5.6-9.15,6.811-3.418,1.182-6.991.257-7.659-1.671s1.234-1.542,1.619-.668c.951,2.108,4.009,2.056,7.2-1.208a12.28,12.28,0,0,0,3.213-8.019,19.531,19.531,0,0,0-.72-5.32c-1.851,3.084-12.568,12.414-16.449,15.344-3.65,2.75-9.021,2.467-10.409.334-1.336-2.082.951-2.287,1.336-1.157.36,1.157,3.315,3.007,7.351-1.182,1.773-1.85,3.11-4.5,3.11-8.97a10.94,10.94,0,0,0-.565-4.086A96.911,96.911,0,0,1,119,239.7c-3.264,2.082-5.4,2.6-7.608,2.6A5.071,5.071,0,0,1,106.845,240a11.539,11.539,0,0,1-5.911,2.159,2.862,2.862,0,0,1-2.853-3.444c.334-3.213,3.907-8.867,5.757-12.439.334-.668.206-1.285-.411-1.182-.668.1-2.827.411-4.395.54a67.451,67.451,0,0,1-6.682,10.023,18.327,18.327,0,0,1-12.414,6.682c-4.626.463-6.759.18-7.479-.9-.154-.231-.154-.308.026-.488a7.583,7.583,0,0,1,.617-.668.32.32,0,0,1,.437-.026c.437.488.822.643,2.082.643,1.979,0,5.166-2.159,8.1-6.785,1.748-2.75,3.161-5.4,3.264-7.659.077-1.773-1.388-2.544-4.421-.488a44.037,44.037,0,0,0-9.921,9.869c-4.061,5.269-12.182,18.222-12.568,18.968-.36.72-.54.771-.977.9-.565.18-3.187.8-3.778,1-.514.18-.694.1-.437-.283.308-.437,9.175-14.11,10.1-15.369-1.773,1.259-8.07,3.238-6.862-2.956-2.6,2.647-6.374,5.012-10.358,4.138a3.246,3.246,0,0,1-2.082-3.418,12.858,12.858,0,0,1-9.612,3.624c-3.932,0-10.229-2.364-10.152-12.491.026-3.752,1.131-8.045,6.22-13.57C24.524,220.574,17.687,229.7,12.47,238.257ZM57.01,227.8c5.4-3.315,8.79-3.264,7.633-.72-1.388,3.033-6.554,8.4-9.458,10.538-5.937,4.369-8.918,2.8-6.5-1.9C50.02,233.142,55.6,228.67,57.01,227.8Zm51.865,8.815c.437-2.262,2.39-4.5,3.624-6.066,1.336-1.7,5.217-4.755,8.045-5.5,2.673-.694,4.909-.051,1.748,2.647C119.028,230.469,111.857,235.455,108.875,236.612Zm50.76-1.079c1.079-2,4.678-7.865,8.738-10.178,2.03-1.157,4.652-1.928,3.727,2.185s-5.808,10.023-8.379,11.488C159.1,241.7,157.811,239,159.636,235.532Z" transform="translate(-12.47 -203.74)"/></svg>