<svg xmlns="http://www.w3.org/2000/svg" width="251.102" height="24.956" viewBox="0 0 251.102 24.956"><defs><style>.a{fill:#7f8083;fill-rule:evenodd;}</style></defs><g transform="translate(0 0)"><path class="a" d="M182.3,9.885a5.38,5.38,0,0,1,2.236,1.773,4.645,4.645,0,0,1,.9,2.082,27.449,27.449,0,0,1,.154,3.47V27.8h-4.78V16.85a4.722,4.722,0,0,0-.488-2.339,2.467,2.467,0,0,0-2.442-1.259,3.381,3.381,0,0,0-2.827,1.234,5.66,5.66,0,0,0-.951,3.547v9.741H169.37V3.46H174.1v8.687a5.663,5.663,0,0,1,2.365-2.21,6.667,6.667,0,0,1,2.827-.617,7.556,7.556,0,0,1,3.007.565Z" transform="translate(-169.37 -3.46)"/><path class="a" d="M184.753,13.209a7.423,7.423,0,0,0,1.876-.411,1.455,1.455,0,0,0,1.028-1.362,1.6,1.6,0,0,0-.771-1.542,4.874,4.874,0,0,0-2.287-.437,3.014,3.014,0,0,0-2.39.822,3.319,3.319,0,0,0-.668,1.645h-4.575A6.654,6.654,0,0,1,178.3,8.095c1.259-1.568,3.418-2.365,6.451-2.365a12.05,12.05,0,0,1,5.294,1.131c1.542.771,2.313,2.236,2.313,4.421v8.327c0,.565,0,1.285.026,2.108a2.581,2.581,0,0,0,.283,1.259,1.5,1.5,0,0,0,.694.54v.668h-5.089a6.253,6.253,0,0,1-.308-1,10.42,10.42,0,0,1-.129-1.079,10.363,10.363,0,0,1-2.262,1.825,6.826,6.826,0,0,1-3.47.874,5.947,5.947,0,0,1-4.087-1.414,5.026,5.026,0,0,1-1.619-4.009A5.156,5.156,0,0,1,179,14.52a11.621,11.621,0,0,1,4.164-1.157l1.594-.154Zm2.879,2.21a7.765,7.765,0,0,1-.925.463,6.635,6.635,0,0,1-1.259.334l-1.079.206a7.022,7.022,0,0,0-2.159.643,2.171,2.171,0,0,0-1.105,2.03,2.177,2.177,0,0,0,.668,1.773,2.583,2.583,0,0,0,1.645.54,5,5,0,0,0,2.853-.9c.874-.591,1.311-1.7,1.362-3.315V15.419Z" transform="translate(-158.332 0.104)"/><path class="a" d="M194.259,5.74c.051,0,.206.026.411.051v4.78c-.308-.026-.565-.026-.8-.051h-.565c-1.9,0-3.187.617-3.829,1.85a7.311,7.311,0,0,0-.54,3.213v8.636H184.21V6.177h4.5V9.312a9.624,9.624,0,0,1,1.9-2.467,5.134,5.134,0,0,1,3.444-1.105Z" transform="translate(-146.069 0.12)"/><path class="a" d="M211.921,6.218a5.429,5.429,0,0,1,2.133,1.619,5.286,5.286,0,0,1,1.028,2.313,16.635,16.635,0,0,1,.18,2.673l-.026,11.386h-4.858V12.7a3.625,3.625,0,0,0-.334-1.7,2.382,2.382,0,0,0-2.339-1.259,2.733,2.733,0,0,0-2.724,1.619,5.018,5.018,0,0,0-.386,2.082V24.209h-4.729V13.466a5.831,5.831,0,0,0-.334-2.339,2.346,2.346,0,0,0-2.365-1.311,2.783,2.783,0,0,0-2.724,1.311,4.986,4.986,0,0,0-.386,2.236v10.9H189.33V6.193h4.5V8.814a7.353,7.353,0,0,1,1.671-2,6.663,6.663,0,0,1,6.939-.154,5.338,5.338,0,0,1,1.568,2.159,5.952,5.952,0,0,1,2.313-2.339,7.255,7.255,0,0,1,3.264-.745,6.925,6.925,0,0,1,2.339.488Z" transform="translate(-138.03 0.104)"/><path class="a" d="M208.143,13.209a7.424,7.424,0,0,0,1.876-.411,1.455,1.455,0,0,0,1.028-1.362,1.6,1.6,0,0,0-.771-1.542,4.874,4.874,0,0,0-2.287-.437,3.014,3.014,0,0,0-2.39.822,3.319,3.319,0,0,0-.668,1.645h-4.6a6.654,6.654,0,0,1,1.336-3.829c1.259-1.568,3.418-2.365,6.477-2.365a12.05,12.05,0,0,1,5.294,1.131c1.542.771,2.313,2.236,2.313,4.421v8.327c0,.565,0,1.285.026,2.108a2.58,2.58,0,0,0,.283,1.259,1.5,1.5,0,0,0,.694.54v.668h-5.089a6.256,6.256,0,0,1-.308-1,10.424,10.424,0,0,1-.129-1.079,10.361,10.361,0,0,1-2.262,1.825,6.826,6.826,0,0,1-3.47.874,5.947,5.947,0,0,1-4.087-1.414,5.026,5.026,0,0,1-1.619-4.009,5.156,5.156,0,0,1,2.6-4.858,11.621,11.621,0,0,1,4.164-1.157l1.593-.154Zm2.879,2.21a7.765,7.765,0,0,1-.925.463,6.636,6.636,0,0,1-1.259.334l-1.079.206a7.022,7.022,0,0,0-2.159.643,2.171,2.171,0,0,0-1.105,2.03,2.177,2.177,0,0,0,.668,1.773,2.583,2.583,0,0,0,1.645.54,4.864,4.864,0,0,0,2.827-.9c.874-.591,1.311-1.7,1.362-3.315V15.419Z" transform="translate(-121.607 0.104)"/><path class="a" d="M222.064,7.221q1.773,1.465,1.773,4.858V24.235h-4.909V13.26a5.421,5.421,0,0,0-.36-2.185A2.6,2.6,0,0,0,216,9.688a3.212,3.212,0,0,0-3.213,2.03,7.007,7.007,0,0,0-.437,2.75v9.766H207.62V6.193h4.575V8.84a8.333,8.333,0,0,1,1.7-2,5.926,5.926,0,0,1,3.65-1.105,6.988,6.988,0,0,1,4.523,1.491Z" transform="translate(-109.313 0.104)"/><path class="a" d="M222.47,3.46H227.1V16.619L232.9,9.885h5.834l-6.374,6.682L238.97,27.8h-5.654l-4.292-7.71-1.928,2.03V27.8H222.47Z" transform="translate(-85.996 -3.46)"/><path class="a" d="M237.673,13.209a7.423,7.423,0,0,0,1.876-.411,1.455,1.455,0,0,0,1.028-1.362,1.6,1.6,0,0,0-.771-1.542,4.874,4.874,0,0,0-2.287-.437,3.014,3.014,0,0,0-2.39.822,3.319,3.319,0,0,0-.668,1.645h-4.575a6.655,6.655,0,0,1,1.337-3.829c1.259-1.568,3.418-2.365,6.477-2.365a12.049,12.049,0,0,1,5.294,1.131c1.542.771,2.313,2.236,2.313,4.421v8.327c0,.565,0,1.285.026,2.108a2.581,2.581,0,0,0,.283,1.259,1.559,1.559,0,0,0,.668.54v.668h-5.089a6.252,6.252,0,0,1-.308-1,10.423,10.423,0,0,1-.129-1.079,10.363,10.363,0,0,1-2.262,1.825,6.826,6.826,0,0,1-3.47.874,5.947,5.947,0,0,1-4.086-1.414,5.026,5.026,0,0,1-1.619-4.009,5.2,5.2,0,0,1,2.6-4.858,11.621,11.621,0,0,1,4.164-1.157l1.594-.154Zm2.9,2.21a7.76,7.76,0,0,1-.925.463,6.635,6.635,0,0,1-1.259.334l-1.079.206a7.022,7.022,0,0,0-2.159.643,2.171,2.171,0,0,0-1.105,2.03,2.177,2.177,0,0,0,.668,1.773,2.583,2.583,0,0,0,1.645.54,5,5,0,0,0,2.853-.9c.874-.591,1.311-1.7,1.336-3.315V15.419Z" transform="translate(-75.241 0.104)"/><path class="a" d="M246.929,5.74c.051,0,.206.026.411.051v4.78c-.308-.026-.565-.026-.8-.051h-.565c-1.9,0-3.187.617-3.829,1.85a7.311,7.311,0,0,0-.54,3.213v8.636H236.88V6.177h4.5V9.312a9.623,9.623,0,0,1,1.9-2.467,5.133,5.133,0,0,1,3.444-1.105Z" transform="translate(-63.371 0.12)"/><path class="a" d="M251.732,10.04a5.9,5.9,0,0,1,2.082,1.979V3.46h4.729V27.8h-4.5V25.357a5.847,5.847,0,0,1-5.526,3.058,6.663,6.663,0,0,1-5.32-2.57,9.9,9.9,0,0,1-2.159-6.58,11.425,11.425,0,0,1,2.133-7.3,6.891,6.891,0,0,1,5.68-2.647,5.7,5.7,0,0,1,2.879.72Zm1.208,12.928a6.689,6.689,0,0,0,1.054-3.907q0-3.354-1.7-4.78a3.5,3.5,0,0,0-2.365-.874,3.3,3.3,0,0,0-3.033,1.568,7.4,7.4,0,0,0-.951,3.907,7.439,7.439,0,0,0,.977,4.035,3.339,3.339,0,0,0,2.981,1.516,3.389,3.389,0,0,0,3.033-1.465Z" transform="translate(-56.839 -3.46)"/><path class="a" d="M264.716,22.087c-1.516,1.876-3.829,2.827-6.939,2.827s-5.423-.951-6.939-2.827A10.462,10.462,0,0,1,248.55,15.3a10.541,10.541,0,0,1,2.287-6.759q2.274-2.853,6.939-2.853c3.11,0,5.4.951,6.939,2.853A10.541,10.541,0,0,1,267,15.3a10.606,10.606,0,0,1-2.287,6.785Zm-3.752-2.6a6.829,6.829,0,0,0,1.105-4.189,6.778,6.778,0,0,0-1.105-4.189,4.2,4.2,0,0,0-6.374,0,6.775,6.775,0,0,0-1.131,4.189,6.775,6.775,0,0,0,1.131,4.189,4.2,4.2,0,0,0,6.374,0Z" transform="translate(-45.047 0.041)"/><path class="a" d="M271.53,7.221q1.773,1.465,1.773,4.858V24.235h-4.909V13.26a5.42,5.42,0,0,0-.36-2.185,2.576,2.576,0,0,0-2.57-1.388,3.19,3.19,0,0,0-3.213,2.03,6.97,6.97,0,0,0-.463,2.75v9.766H257.06V6.193h4.575V8.84a8.334,8.334,0,0,1,1.7-2,5.926,5.926,0,0,1,3.65-1.105,6.961,6.961,0,0,1,4.549,1.491Z" transform="translate(-31.685 0.104)"/><path class="a" d="M270.355,9.973A3.56,3.56,0,0,1,264.29,7.4a3.364,3.364,0,0,1,1.105-2.6,3.521,3.521,0,0,1,2.467-.977,3.457,3.457,0,0,1,2.519,1.054A3.457,3.457,0,0,1,271.435,7.4a3.415,3.415,0,0,1-1.08,2.57Zm-4.575-4.626a2.914,2.914,0,0,0-.848,2.082,2.813,2.813,0,0,0,.874,2.108,2.917,2.917,0,0,0,4.164,0,3.011,3.011,0,0,0,0-4.189,2.888,2.888,0,0,0-4.189,0Zm.514,4.035V5.423h1.928a2.109,2.109,0,0,1,.771.206,1.013,1.013,0,0,1,.54.951.891.891,0,0,1-.283.72,1.2,1.2,0,0,1-.694.257,1.292,1.292,0,0,1,.565.231,1.068,1.068,0,0,1,.36.874V9.15a1.112,1.112,0,0,1,.026.129l.026.1h-.977a2.726,2.726,0,0,1-.051-.54,1.835,1.835,0,0,0-.051-.488.509.509,0,0,0-.283-.283,1.191,1.191,0,0,0-.36-.051l-.231-.026h-.231V9.381Zm1.876-3.187a1.725,1.725,0,0,0-.591-.077h-.257V7.274h.411a.923.923,0,0,0,.565-.154.565.565,0,0,0,.206-.463.483.483,0,0,0-.334-.463Z" transform="translate(-20.333 -2.879)"/><path class="a" d="M230.368,3.46h-.977L215.23,27.8h.977Z" transform="translate(-97.364 -3.46)"/></g></svg>