<svg xmlns="http://www.w3.org/2000/svg" width="144.234" height="40.454" viewBox="0 0 144.234 40.454"><defs><style>.a{fill:#7f8083;}</style></defs><g transform="translate(0 0)"><g transform="translate(0 1.439)"><path class="a" d="M357.833,4.033c.36.822.643,1.362,1.105,2.493.643,2.03,1.259,3.855,1.773,5.834.334.951.617,1.85.9,2.776a59.855,59.855,0,0,0,3.058,7.633c.257.411.591.18.823-.051,4.086-3.547,6.682-8.507,8.841-13.21a2.186,2.186,0,0,1,2.467-.9c1.542.206,2.467,1.722,3.367,2.9,2.544,4.266,3.187,9.432,2.622,14.6-.617,4.292-2.93,8.61-7.3,10.281a9.776,9.776,0,0,1-9.124-2.108,27.446,27.446,0,0,1-4.446-5.063,1.109,1.109,0,0,0-1.259-.411,4.771,4.771,0,0,1-2.339.18c-4.652-.591-8.276-5.14-9.227-9.458a27.422,27.422,0,0,1-.437-8.07,26.438,26.438,0,0,1,1.388-6.631c.617-1.593,1.645-3.65,3.675-3.829A4.822,4.822,0,0,1,357.833,4.033Zm-5.243.72a.975.975,0,0,0-1.105.334c-1,1.876-1.157,4.138-1.336,6.477-.334,2.57.385,5.012.9,7.351.925,2.724,2.57,5.86,5.783,6.4a3.433,3.433,0,0,0,2.339-.206c-.642-2.185-1.568-4.189-2.236-6.4-.617-2.108-1.182-4.138-1.671-6.374-.283-1.285-.565-2.622-.822-3.932C354.107,6.808,353.824,5.318,352.59,4.752Zm23.645,6.811c-1.336.257-1.7,1.568-2.236,2.622-.283.591-.565,1-.9,1.722-.643,1.465-1.362,2.7-2.159,4.164a41.762,41.762,0,0,1-2.93,4.189c-.488.617-1.593,1.105-1.388,2a11.933,11.933,0,0,0,3.213,3.958,5.826,5.826,0,0,0,5.294.822,9.741,9.741,0,0,0,5.192-7.222,14.722,14.722,0,0,0-.411-8.173C379.165,14.082,378.523,11.64,376.235,11.563Z" transform="translate(-348.53 -1)"/></g><rect class="a" width="2.904" height="28.76" transform="translate(40.144 4.344)"/><rect class="a" width="2.904" height="22.103" transform="translate(78.953 10.974)"/><rect class="a" width="2.981" height="2.981" transform="translate(78.876 7.119)"/><path class="a" d="M380.568,11.414A9.519,9.519,0,0,1,389.821,3.4h.925V.44h-1.157a12.224,12.224,0,0,0-11.951,10.974H374.4v3.033h3.033v19.1h2.981V14.473h4.575V11.414Z" transform="translate(-307.912 -0.44)"/><rect class="a" width="2.904" height="22.103" transform="translate(107.61 10.974)"/><rect class="a" width="2.981" height="2.981" transform="translate(107.533 7.119)"/><path class="a" d="M369.211,8.123a10.84,10.84,0,0,1,7.582-3.11,11.31,11.31,0,0,1,11.077,11.514V26.807h-2.981V15.884a7.813,7.813,0,0,0-15.626,0l-.026.668V26.833H366.23V4.73h3.007V7.994Z" transform="translate(-320.74 6.296)"/><path class="a" d="M384.221,8.123a10.84,10.84,0,0,1,7.582-3.11A11.309,11.309,0,0,1,402.88,16.527V26.807H399.9V15.884a7.813,7.813,0,0,0-15.626,0l-.026.668V26.833H381.24V4.73h3.007V7.994Z" transform="translate(-297.172 6.296)"/><path class="a" d="M407.286,32.1V29.4h-1.465a9.138,9.138,0,0,1-8.944-9.33l-.026-.643V11.794h6.914l7.2,17.5.077.206-3.444,7.145,2.519,1.593L424.481,8.761h-3.367l-8.25,16.886-.128.257L405.693,8.787h-8.43l-.411-.026V2.13H393.87V8.787h-1.85v3.007h1.85v8.07a12.04,12.04,0,0,0,11.8,12.285h1.645V32.1Z" transform="translate(-280.246 2.214)"/></g></svg>