<svg xmlns="http://www.w3.org/2000/svg" width="75.819" height="42.767" viewBox="0 0 75.819 42.767"><defs><style>.a{fill:#7f8083;}</style></defs><g transform="translate(0 0)"><path class="a" d="M539.593,35.982a3.6,3.6,0,0,1-3.547,3.624,3.565,3.565,0,0,1-3.573-3.572V28.708H525.56v6.066c0,3.033,2.724,7.967,10.486,7.967,7.736,0,10.46-3.778,10.46-7.967V0h-6.914Z" transform="translate(-522.63 0.026)"/><path class="a" d="M537.194,0H524.42l6.4,14.547Z" transform="translate(-524.42 0.026)"/><path class="a" d="M529.359,14.279a4.009,4.009,0,1,0-4.009-4.009A4.015,4.015,0,0,0,529.359,14.279Z" transform="translate(-522.96 9.855)"/><path class="a" d="M559.8,28.7v7.325a3.56,3.56,0,1,1-7.119,0V-.01H545.77v42.1h20.947V28.673H559.8Z" transform="translate(-490.898 0.01)"/><path class="a" d="M549.577,0H535.75V42.1h13.827c5.192,0,6.914-3.341,6.914-5.5V23.979a4.568,4.568,0,0,0-4.549-4.138c2.724,0,4.549-3.727,4.549-5.808V6.862A7.039,7.039,0,0,0,549.577,0Zm-2.724,38.655h-4.189V21.692h4.189c2.724,0,2.724,1.928,2.724,8.533C549.577,36.8,549.577,38.655,546.853,38.655Zm-.437-20.535-3.778-.026V3.958h3.778c2.519,0,3.135.514,3.135,7.119C549.577,17.708,548.935,18.119,546.416,18.119Z" transform="translate(-506.63 0.026)"/></g></svg>