<svg xmlns="http://www.w3.org/2000/svg" width="70.447" height="65.59" viewBox="0 0 70.447 65.59"><defs><style>.a{fill:#7f8083;}</style></defs><g transform="translate(0 0)"><path class="a" d="M193.521,228.819h1.054v.668c0,1.311.334,1.594,1.773,1.594h1.979c1.311,0,1.85-.231,1.85-1.285V223.55h1.131v6.04c0,1.928-.822,2.442-2.9,2.442h-2.159c-1.979,0-2.776-.694-2.776-2.262v-.951Z" transform="translate(-193.47 -166.442)"/><path class="a" d="M197.14,223.54h1.131v7.453h6.5v.925H197.14Z" transform="translate(-187.708 -166.457)"/><path class="a" d="M210.447,229.22h-5.629l2.8-4.755Zm-8.507,2.7h1.285l1.054-1.773h6.708l1.054,1.773h1.285l-4.986-8.379h-1.414Z" transform="translate(-180.171 -166.457)"/><path class="a" d="M206.64,223.54h1.131v6.271c0,.822.283,1.285,1.825,1.285h3.932c1.542,0,1.825-.463,1.825-1.285V223.54h1.131v6.271c0,1.7-.848,2.21-2.981,2.21h-3.855c-2.133,0-2.981-.488-2.981-2.21V223.54Z" transform="translate(-172.791 -166.457)"/><path class="a" d="M220.281,228.192c0,2.519-.951,2.8-2.313,2.8h-5.757v-6.528h5.937c1.388,0,2.133.437,2.133,2.853Zm-9.2,3.727h6.734c2.853,0,3.6-1.105,3.6-4.189,0-3.315-.771-4.189-3.572-4.189H211.08v8.379Z" transform="translate(-165.82 -166.457)"/><path class="a" d="M215.67,223.54H216.8v8.379H215.67Z" transform="translate(-158.613 -166.457)"/><path class="a" d="M226.318,229.37c0,1.465-.874,1.773-1.979,1.773h-4.6c-1.079,0-1.979-.334-1.979-1.773v-3.136c0-1.465.874-1.773,1.979-1.773h4.6c1.079,0,1.979.334,1.979,1.773Zm-9.638-.437c0,2.108.72,3.136,2.981,3.136h4.832c2.262,0,2.981-1.028,2.981-3.136v-2.287c0-2.107-.72-3.136-2.981-3.136h-4.832c-2.262,0-2.981,1.028-2.981,3.136Z" transform="translate(-157.027 -166.505)"/><g transform="translate(0.051)"><path class="a" d="M207.8,256.177V201.33h7.479l8.122,37.4,17.451,8.713v8.738Z" transform="translate(-171.021 -201.33)"/><path class="a" d="M219.063,201.33h7.479v54.846H193.49v-8.738l17.451-8.713Z" transform="translate(-193.49 -201.33)"/></g></g></svg>