<svg xmlns="http://www.w3.org/2000/svg" width="115.553" height="21.795" viewBox="0 0 115.553 21.795"><defs><style>.a{fill:#7f8083;}</style></defs><g transform="translate(0 0)"><path class="a" d="M21.51,126.567V105.62h4.626v9.638l8.507-9.638h5.886l-9.2,10.1,9.869,10.82H35.029l-8.918-10.1v10.1h-4.6Z" transform="translate(-21.51 -105.234)"/><path class="a" d="M31.94,105.62h8.867c4.5,0,6.837,2.442,6.837,6.091a5.876,5.876,0,0,1-5.937,6.22l7.813,8.61H43.814l-7.273-8.559h-.257v8.559H31.966V105.62Zm4.344,9.278h3.161c2.519,0,3.907-.9,3.907-2.981a2.584,2.584,0,0,0-2.724-2.7H36.309v5.68Z" transform="translate(-5.134 -105.234)"/><path class="a" d="M45.582,105.62v12.388c0,4.318,2.262,5.089,5.063,5.089s5.089-.771,5.089-5.089V105.62H60.36v11.643c0,7.53-3.8,9.715-9.715,9.715s-9.715-2.185-9.715-9.715V105.62Z" transform="translate(8.982 -105.234)"/><path class="a" d="M51.46,105.62h9.766c5.037,0,7.479,2.8,7.479,6.271,0,3.778-2.467,6.58-8.584,6.58H56.189v8.07H51.46Zm4.729,9.278h3.444c3.213,0,4.318-1.131,4.318-2.853,0-1.773-1.157-2.853-3.624-2.853H56.189Z" transform="translate(25.515 -105.234)"/><path class="a" d="M60.11,121.251a20.759,20.759,0,0,0,7.839,2.21c2.21,0,3.547-1.028,3.547-2.57,0-3.958-10.666-1.439-10.666-9.2,0-3.7,2.57-6.22,7.479-6.22,4.112,0,5.808.643,7.685,1.825v3.675c-.848-1.079-5.629-1.722-7.453-1.722-1.8,0-2.956.745-2.956,2.185,0,1.876,1.953,1.9,5.14,2.956,3.778,1.234,5.731,3.161,5.731,6.374,0,3.8-3.11,6.5-8.019,6.5A14.085,14.085,0,0,1,60.11,125Z" transform="translate(39.097 -105.47)"/></g></svg>