<svg xmlns="http://www.w3.org/2000/svg" width="184.792" height="26.73" viewBox="0 0 184.792 26.73"><defs><style>.a{fill:#7f8083;}</style></defs><g transform="translate(0 0)"><path class="a" d="M518.666,115.8a32.05,32.05,0,0,0,11.694.8c2.7-.257,3.624-1.619,3.778-2.9.128-1.285-.745-2.082-2.544-2.7-1.825-.617-5.783-.411-5.783-.411a9.014,9.014,0,0,0-9.278,6.734l-4.96,13.082H503.22l4.806-13.416S511.316,106.5,521.082,105s15.01.668,16.218,1.285,6.708,3.547,5.269,8.456-6.554,10.023-22.694,7.4Z" transform="translate(-503.22 -104.49)"/><path class="a" d="M525.561,123.8h-8.3l5.192-15.087h8.276Z" transform="translate(-481.175 -97.863)"/><path class="a" d="M536.887,125.033c-8.045,0-14.547-3.727-14.547-8.3,0-4.6,6.5-8.3,14.547-8.3l.206,4.858c-3.393,0-6.117,1.593-6.117,3.572s2.75,3.572,6.117,3.572Z" transform="translate(-473.199 -98.303)"/><path class="a" d="M533.66,111.65" transform="translate(-455.425 -93.247)"/><path class="a" d="M528,125.033c8.044,0,14.547-3.727,14.547-8.3,0-4.6-6.5-8.3-14.547-8.3l.206,4.858c3.393,0,6.117,1.593,6.117,3.572s-2.75,3.572-6.117,3.572Z" transform="translate(-464.312 -98.303)"/><path class="a" d="M533.5,124.346h8.07l2.878-7.839a4.6,4.6,0,0,1,4.78-3.29c4.035,0,3.5,2.287,3.033,3.624s-2.827,7.325-2.827,7.325h7.89l2.93-7.608s3.5-8.2-8.739-8.2-14.6,6.991-14.6,6.991Z" transform="translate(-455.677 -98.413)"/><path class="a" d="M560.826,118.4s-7.068.437-10.229-2.185c0,0-1,7.813,20.715,2.544l-1.414,4.5a41.648,41.648,0,0,1-10.435,1.671c-4.986,0-14.8-1.953-14.8-8.07s8.61-8.481,15.138-8.481l-.077,3.7a14.636,14.636,0,0,0-6.194,1.336,14.733,14.733,0,0,0,10.1,1.079Z" transform="translate(-438.154 -98.381)"/><path class="a" d="M551.609,118.388c3.161,0,12.105-.822,12.105-4.344,0-3.5-6.605-5.654-13.108-5.654l-.077,3.7c3.624,0,8.173,1.362,3.907,2.416Z" transform="translate(-428.937 -98.366)"/><path class="a" d="M572.4,118.4s-7.068.437-10.229-2.185c0,0-1,7.813,20.715,2.544l-1.413,4.5a41.65,41.65,0,0,1-10.435,1.671c-4.986,0-14.8-1.953-14.8-8.07s8.61-8.481,15.138-8.481l-.077,3.7a14.637,14.637,0,0,0-6.194,1.336,14.733,14.733,0,0,0,10.1,1.079Z" transform="translate(-419.988 -98.381)"/><path class="a" d="M563.179,118.388c3.161,0,12.105-.822,12.105-4.344,0-3.5-6.605-5.654-13.108-5.654l-.077,3.7c3.624,0,8.173,1.362,3.907,2.416Z" transform="translate(-410.771 -98.366)"/><path class="a" d="M567.05,123.561l2.827-8.533S571.5,108.5,577.3,108.5h10.486l-1.517,4.446h-5.783s-1.825-.206-2.75,2.21c-.951,2.416-2.9,8.4-2.9,8.4Z" transform="translate(-402.999 -98.193)"/></g></svg>