<svg xmlns="http://www.w3.org/2000/svg" width="226.068" height="38.475" viewBox="0 0 226.068 38.475"><defs><style>.a{fill:#7f8083;}</style></defs><g transform="translate(0 0)"><path class="a" d="M7.87.83h4.5V5.353H7.87ZM8,9.517h4.266v21.2H8Z" transform="translate(12.357 -0.83)"/><path class="a" d="M37.1,25.571V12.643c0-3.315-1.876-4.729-4.266-4.729a4.211,4.211,0,0,0-4.395,4.523V25.571H24.168V12.643c0-3.315-1.876-4.729-4.266-4.729s-4.395,1.465-4.395,4.729V25.571H11.24V4.367h4.189V6.5a7.7,7.7,0,0,1,5.654-2.39A6.773,6.773,0,0,1,27.1,7.22a8.047,8.047,0,0,1,6.657-3.11A7.669,7.669,0,0,1,39.1,6.038a7.842,7.842,0,0,1,2.262,5.988V25.6H37.1" transform="translate(17.648 4.32)"/><path class="a" d="M37.508,14.94c0,3.752-.54,7.068-4.395,7.068s-4.446-3.315-4.446-7.068c0-3.778.591-7.016,4.446-7.016S37.508,11.162,37.508,14.94Zm4.266,0c0-3.238-.257-6.811-2.39-8.944A7.318,7.318,0,0,0,34.192,4.12a6.539,6.539,0,0,0-5.6,2.519V4.351H24.4V34.139h4.266V23.4a6.63,6.63,0,0,0,5.551,2.416,7.157,7.157,0,0,0,5.14-1.9c2.159-2.108,2.416-5.757,2.416-8.97" transform="translate(38.311 4.336)"/><path class="a" d="M38.408,30.642c-4.061,0-5.808-2.724-5.808-5.86V.88h4.266V24.551c0,1.619.591,2.467,2.313,2.467h1.876v3.65H38.408" transform="translate(51.186 -0.751)"/><path class="a" d="M49.886,13.218H40.351a6.472,6.472,0,0,1,.54-2.879,4.64,4.64,0,0,1,8.4,0A7,7,0,0,1,49.886,13.218ZM54.1,16.2V14.323c0-6.014-3.29-10.2-9-10.2-5.423,0-9,3.984-9,10.846,0,8.07,4.241,10.872,9.535,10.872a9.89,9.89,0,0,0,7.942-3.315l-2.724-2.544a6.365,6.365,0,0,1-5.14,2.159c-3.47,0-5.4-2.287-5.4-5.937H54.1" transform="translate(56.697 4.336)"/><path class="a" d="M93.452,6.038A7.715,7.715,0,0,0,88.106,4.11,8.1,8.1,0,0,0,81.45,7.194,6.724,6.724,0,0,0,75.436,4.11a7.646,7.646,0,0,0-5.551,2.313V4.367H65.618V17.295c0,3.264-2,4.729-4.395,4.729s-4.266-1.414-4.266-4.729V4.367H52.69v13.57A7.753,7.753,0,0,0,54.823,23.9a7.386,7.386,0,0,0,5.217,1.928,7.587,7.587,0,0,0,5.577-2.313v2.056h4.266V12.643c0-3.264,2-4.729,4.395-4.729s4.266,1.414,4.266,4.729V25.571h4.266V12.463a4.211,4.211,0,0,1,4.395-4.523c2.39,0,4.266,1.414,4.266,4.729V25.6H95.74V12.026a8.157,8.157,0,0,0-2.287-5.988" transform="translate(82.73 4.32)"/><path class="a" d="M83.332,17.922a4.162,4.162,0,0,1-.925,3.136c-1.105,1.079-2.339,1.208-3.958,1.208-2.673,0-3.881-1.079-3.881-3.007s1.311-3.058,3.8-3.058h4.986v1.722ZM87.6,25.555V11.393c0-4.806-2.93-7.273-8.738-7.273-3.521,0-5.6.72-7.608,3.058l2.8,2.622c1.182-1.491,2.313-2.03,4.652-2.03,3.315,0,4.652,1.285,4.652,3.958v1.516h-5.6c-4.858,0-7.325,2.544-7.325,6.117A6.519,6.519,0,0,0,72.1,23.91c1.311,1.311,3.058,1.928,5.706,1.928a7.06,7.06,0,0,0,5.654-2.185v1.928H87.6" transform="translate(110.584 4.336)"/><path class="a" d="M91.328,25.571V12.643c0-3.29-1.876-4.729-4.266-4.729-2.365,0-4.395,1.465-4.395,4.729V25.571H78.4V4.367h4.164V6.5a7.594,7.594,0,0,1,5.654-2.39,7.407,7.407,0,0,1,5.243,1.928A7.824,7.824,0,0,1,95.594,12v13.57H91.328" transform="translate(123.098 4.32)"/><path class="a" d="M8.918,25.722c-3.47,0-6.4-.591-8.918-3.033l2.8-2.8A8.252,8.252,0,0,0,8.893,22.1c2.6,0,4.652-.925,4.652-2.93,0-1.414-.8-2.339-2.827-2.519l-3.393-.283c-3.984-.308-6.271-2.133-6.271-5.86,0-4.138,3.572-6.477,7.993-6.477,3.161,0,5.886.668,7.865,2.39l-2.7,2.724A7.97,7.97,0,0,0,9,7.6C6.451,7.6,5.14,8.733,5.14,10.3c0,1.259.668,2.21,2.93,2.442l3.341.283c3.984.334,6.323,2.21,6.323,5.988,0,4.421-3.752,6.708-8.816,6.708" transform="translate(0 4.194)"/><path class="a" d="M57.595,30.672v-13c0-3.213-1.876-4.652-4.266-4.652s-4.292,1.465-4.292,4.652v13H44.77V.91h4.266V11.627a7.247,7.247,0,0,1,5.474-2.39c4.729,0,7.376,3.187,7.376,7.762V30.672H57.595" transform="translate(70.295 -0.704)"/><path class="a" d="M85.57,4.89h2.647v.386H87.112V8.154h-.437V5.276H85.57Z" transform="translate(134.356 5.545)"/><path class="a" d="M89.474,8.154V5.4h0l-.925,2.75h-.437L87.187,5.43h0V8.154H86.75V4.89h.643l.925,2.75h0l.925-2.75h.617V8.154Z" transform="translate(136.209 5.545)"/></g></svg>