<svg xmlns="http://www.w3.org/2000/svg" width="106.558" height="23.44" viewBox="0 0 106.558 23.44"><defs><style>.a{fill:#7f8083;}</style></defs><g transform="translate(0 0)"><path class="a" d="M532.63,209.52H517.8v5.346h4.729V232.96H527.9V214.866h4.729Z" transform="translate(-517.8 -209.52)"/><path class="a" d="M551.294,214.866V209.52H539.6v23.44h11.694v-5.372h-4.935v-4.421h4.318v-4.652h-4.318v-3.65Z" transform="translate(-483.571 -209.52)"/><path class="a" d="M535.482,232.96h5.809l-5.423-23.44H528.9l-5.423,23.44h5.808l.565-2.853h5.038Zm-4.549-8.173,1.465-7.351,1.465,7.351Z" transform="translate(-508.882 -209.52)"/><path class="a" d="M562.982,232.96h5.808l-5.423-23.44H556.4l-5.423,23.44h5.809l.565-2.853h5.037Zm-4.549-8.173,1.465-7.351,1.465,7.351Z" transform="translate(-465.703 -209.52)"/><path class="a" d="M548.023,232.96l-5.4-13,4.986-10.435h-5.886l-4.575,9.587V209.52H531.78v23.44h5.372v-12l4.986,12Z" transform="translate(-495.85 -209.52)"/><path class="a" d="M556.7,232.96v-9.921l5.68-13.519H555.8l-2.21,7.119-2.185-7.119H544.8l5.68,13.519v9.921Z" transform="translate(-475.407 -209.52)"/><g transform="translate(101.109 0.051)"><path class="a" d="M557.14,212.264a2.726,2.726,0,0,1,2.724-2.724h0a2.709,2.709,0,0,1,2.724,2.724h0a2.709,2.709,0,0,1-2.724,2.724h0a2.709,2.709,0,0,1-2.724-2.724Zm.437,0a2.293,2.293,0,0,0,2.287,2.287h0a2.293,2.293,0,0,0,2.287-2.287h0a2.293,2.293,0,0,0-2.287-2.287h0a2.293,2.293,0,0,0-2.287,2.287Z" transform="translate(-557.14 -209.54)"/><path class="a" d="M559.342,211.863c.051-.026.1-.026.154-.051a.934.934,0,0,0,.411-.36.95.95,0,0,0,.154-.54,1.046,1.046,0,0,0-.206-.617.974.974,0,0,0-.54-.334,4.493,4.493,0,0,0-.745-.051H557.8v3.5h.565v-1.516h.385l.8,1.516h.668Zm-.565-.488h-.437V210.5h.463a1.526,1.526,0,0,1,.437.051.345.345,0,0,1,.18.154.414.414,0,0,1,.077.231.314.314,0,0,1-.077.231.345.345,0,0,1-.18.154A1.913,1.913,0,0,1,558.777,211.375Z" transform="translate(-556.104 -208.959)"/></g></g></svg>