<svg xmlns="http://www.w3.org/2000/svg" width="616" height="365.258" viewBox="0 0 616 365.258">
  <g id="Group_99" data-name="Group 99" transform="translate(-558 -1444)">
    <g id="Group_90" data-name="Group 90" transform="translate(1633.062 -1086.334)">
      <path id="Path_309" data-name="Path 309" d="M0,0H365.258V365.258H0Z" transform="translate(-1075.062 2530.334)" fill="#bb3c04"/>
      <circle id="Ellipse_9" data-name="Ellipse 9" cx="149.374" cy="149.374" r="149.374" transform="translate(-1042.245 2563.589)" fill="#10100e"/>
      <path id="Path_300" data-name="Path 300" d="M-606.308,3003.793c.658,11.185-5.668,19.485-16.549,19.282s-16.5-7.693-16.8-17.106,6.377-17.31,17.511-17.309a15.673,15.673,0,0,1,14.272,9.046l-7.677,3.412s-2.209-5.269-7.228-5.145c-5.137.127-8.072,5.255-8.072,9.82,0,4.342,1.991,10.071,8.5,10.146a5.739,5.739,0,0,0,6.225-5.263l-6.529-.051v-6.68Z" transform="translate(-302.867 -318.821)" fill="#fff"/>
      <path id="Path_301" data-name="Path 301" d="M-484.312,2987.755c-9.9.024-17.73,7.542-17.554,17.347a17.487,17.487,0,0,0,17.554,17.347,17.109,17.109,0,0,0,17.554-17.347A17.173,17.173,0,0,0-484.312,2987.755Zm0,26.322a8.961,8.961,0,0,1-8.922-9,8.961,8.961,0,0,1,8.922-9,8.961,8.961,0,0,1,8.922,9A8.961,8.961,0,0,1-484.312,3014.077Z" transform="translate(-398.724 -318.191)" fill="#fff"/>
      <path id="Path_302" data-name="Path 302" d="M-339.9,2987.755c-9.9.024-17.73,7.542-17.554,17.347a17.487,17.487,0,0,0,17.554,17.347,17.108,17.108,0,0,0,17.554-17.347A17.173,17.173,0,0,0-339.9,2987.755Zm0,26.322a8.961,8.961,0,0,1-8.922-9,8.961,8.961,0,0,1,8.922-9,8.961,8.961,0,0,1,8.922,9A8.961,8.961,0,0,1-339.9,3014.077Z" transform="translate(-499.176 -318.191)" fill="#fff"/>
      <path id="Path_303" data-name="Path 303" d="M-195.859,2990.731h-13.119v32.013h6.472v.006l6.377-.006c7.355.236,15.008-6.917,15.008-16.244C-181.121,2996.663-189.988,2990.665-195.859,2990.731Zm-2.071,24.722h-2.855v-17.707h3c3.247-.036,8.13,3.281,8.13,8.722C-189.651,3011.627-193.862,3015.584-197.93,3015.453Z" transform="translate(-602.464 -320.26)" fill="#fff"/>
      <path id="Path_304" data-name="Path 304" d="M-744.927,3171.059h-13.119v32.013h6.473v.005l6.377-.005c7.355.236,15.008-6.917,15.008-16.244C-730.189,3176.991-739.056,3170.993-744.927,3171.059ZM-747,3195.781h-2.855v-17.706h3c3.247-.037,8.129,3.281,8.129,8.721C-738.719,3191.956-742.929,3195.912-747,3195.781Z" transform="translate(-220.522 -445.7)" fill="#fff"/>
      <path id="Path_305" data-name="Path 305" d="M-614.239,3177.263v-7.035h-17.916v32.036h17.916v-7.057h-9.667v-5.443h9.16v-6.984h-9.16v-5.516Z" transform="translate(-308.094 -445.122)" fill="#fff"/>
      <rect id="Rectangle_115" data-name="Rectangle 115" width="8.502" height="32.036" transform="translate(-878.607 2724.752)" fill="#fff"/>
      <path id="Path_306" data-name="Path 306" d="M-203.854,3168.234V3187.5l-14.829-19.266h-8.6v32.036h8.6v-19.517l14.829,19.517h8.6v-32.036Z" transform="translate(-589.729 -443.735)" fill="#fff"/>
      <path id="Path_307" data-name="Path 307" d="M-336.013,3180.122c.658,11.185-5.668,19.484-16.55,19.282s-16.5-7.692-16.8-17.106,6.377-17.309,17.511-17.308a15.674,15.674,0,0,1,14.272,9.047l-7.676,3.412s-2.209-5.269-7.228-5.146c-5.137.127-8.072,5.256-8.072,9.82,0,4.343,1.991,10.072,8.5,10.146a5.739,5.739,0,0,0,6.225-5.263l-6.529-.051v-6.681Z" transform="translate(-490.889 -441.478)" fill="#fff"/>
      <path id="Path_308" data-name="Path 308" d="M-517.809,3169.694s-5.311-2.672-10.071-2.48c-5.036.2-10.95,3.011-10.881,10.679.1,11.336,13.53,7.2,13.614,12.906.064,4.317-6.714,3.357-11.083.05l-3.644,6.225a17.806,17.806,0,0,0,11.387,3.875c9.515-.332,12.083-5.545,12.071-12.074-.017-10.133-14.633-7.253-13.539-12.551.962-4.656,8.946-.353,8.946-.353Z" transform="translate(-372.286 -443.018)" fill="#fff"/>
    </g>
    <text id="_20_18" data-name="20
18" transform="translate(1006 1618)" fill="#707070" font-size="150" font-family="HelveticaNeue-Thin, Helvetica Neue" font-weight="200" letter-spacing="0.005em"><tspan x="0" y="0">20</tspan><tspan fill="#959595"><tspan x="0" y="130">18</tspan></tspan></text>
  </g>
</svg>
